<svg data-v-423bf9ae="" xmlns="http://www.w3.org/2000/svg" viewBox="0 0 181.78682987750966 60" class="font"><!----><!----><!----><g data-v-423bf9ae="" id="b99d7a1f-fff9-424b-bf37-83338d952f73" fill="#FFFFFF" transform="matrix(4.702194273021406,0,0,4.702194273021406,-2.7742981996468643,-25.20376145436824)"><path d="M5.82 15.96L5.82 15.96L5.82 15.96Q5.66 16.18 5.43 16.41L5.43 16.41L5.43 16.41Q5.24 16.60 4.95 16.81L4.95 16.81L4.95 16.81Q4.67 17.02 4.29 17.19L4.29 17.19L4.29 17.19Q3.23 16.21 2.53 15.61L2.53 15.61L2.53 15.61Q1.82 15.01 1.39 14.69L1.39 14.69L1.39 14.69Q0.88 14.31 0.59 14.16L0.59 14.16L0.59 14.16Q0.68 13.98 0.81 13.75L0.81 13.75L0.81 13.75Q0.92 13.56 1.09 13.29L1.09 13.29L1.09 13.29Q1.26 13.02 1.48 12.69L1.48 12.69L1.48 12.69Q1.84 12.63 2.21 12.46L2.21 12.46L2.21 12.46Q2.58 12.28 2.96 12.04L2.96 12.04L2.96 12.04Q3.33 11.79 3.68 11.50L3.68 11.50L3.68 11.50Q4.04 11.20 4.36 10.91L4.36 10.91L4.36 10.91Q5.11 10.22 5.82 9.37L5.82 9.37L5.82 9.37Q5.61 9.84 5.31 10.38L5.31 10.38L5.31 10.38Q5.00 10.91 4.59 11.44L4.59 11.44L4.59 11.44Q4.17 11.97 3.63 12.45L3.63 12.45L3.63 12.45Q3.10 12.93 2.42 13.28L2.42 13.28L2.42 13.28Q2.62 13.43 2.90 13.65L2.90 13.65L2.90 13.65Q3.19 13.86 3.51 14.11L3.51 14.11L3.51 14.11Q3.83 14.36 4.18 14.62L4.18 14.62L4.18 14.62Q4.52 14.88 4.83 15.13L4.83 15.13L4.83 15.13Q5.14 15.37 5.40 15.59L5.40 15.59L5.40 15.59Q5.66 15.80 5.82 15.96ZM15.46 5.36L15.46 5.36L15.46 5.36Q14.71 7.68 13.54 9.96L13.54 9.96L13.54 9.96Q13.03 10.94 12.38 12.00L12.38 12.00L12.38 12.00Q11.74 13.06 10.93 14.12L10.93 14.12L10.93 14.12Q10.13 15.19 9.17 16.21L9.17 16.21L9.17 16.21Q8.20 17.23 7.07 18.12L7.07 18.12L7.07 18.12Q8.08 17.03 8.86 15.98L8.86 15.98L8.86 15.98Q9.65 14.94 10.24 13.97L10.24 13.97L10.24 13.97Q10.83 13.01 11.25 12.13L11.25 12.13L11.25 12.13Q11.66 11.25 11.95 10.49L11.95 10.49L11.95 10.49Q12.23 9.73 12.40 9.10L12.40 9.10L12.40 9.10Q12.57 8.47 12.67 7.99L12.67 7.99L12.67 7.99Q12.76 7.51 12.80 7.21L12.80 7.21L12.80 7.21Q12.84 6.90 12.87 6.79L12.87 6.79L12.87 6.79Q12.90 6.64 13.04 6.54L13.04 6.54L13.04 6.54Q13.18 6.43 13.39 6.35L13.39 6.35L13.39 6.35Q13.60 6.26 13.86 6.18L13.86 6.18L13.86 6.18Q14.12 6.10 14.39 5.99L14.39 5.99L14.39 5.99Q14.67 5.89 14.94 5.74L14.94 5.74L14.94 5.74Q15.22 5.58 15.46 5.36ZM22.62 13.79L22.62 13.79L22.62 13.79Q22.62 14.26 22.37 14.67L22.37 14.67L22.37 14.67Q22.12 15.07 21.72 15.42L21.72 15.42L21.72 15.42Q21.31 15.76 20.81 16.02L20.81 16.02L20.81 16.02Q20.30 16.28 19.77 16.45L19.77 16.45L19.77 16.45Q19.24 16.63 18.75 16.71L18.75 16.71L18.75 16.71Q18.26 16.80 17.89 16.77L17.89 16.77L17.89 16.77Q17.57 16.75 17.22 16.67L17.22 16.67L17.22 16.67Q16.86 16.58 16.59 16.46L16.59 16.46L16.59 16.46Q16.32 16.34 16.19 16.19L16.19 16.19L16.19 16.19Q16.06 16.05 16.18 15.91L16.18 15.91L16.18 15.91Q16.30 15.78 16.45 15.65L16.45 15.65L16.45 15.65Q16.59 15.52 16.79 15.38L16.79 15.38L16.79 15.38Q16.99 15.24 17.26 15.09L17.26 15.09L17.26 15.09Q17.53 14.93 17.92 14.74L17.92 14.74L17.92 14.74Q17.79 14.93 17.86 15.07L17.86 15.07L17.86 15.07Q17.92 15.22 18.08 15.33L18.08 15.33L18.08 15.33Q18.25 15.44 18.49 15.52L18.49 15.52L18.49 15.52Q18.74 15.59 18.97 15.64L18.97 15.64L18.97 15.64Q19.21 15.69 19.40 15.71L19.40 15.71L19.40 15.71Q19.60 15.73 19.68 15.73L19.68 15.73L19.68 15.73Q19.93 15.73 20.17 15.71L20.17 15.71L20.17 15.71Q20.41 15.68 20.60 15.60L20.60 15.60L20.60 15.60Q20.79 15.52 20.91 15.36L20.91 15.36L20.91 15.36Q21.03 15.20 21.03 14.92L21.03 14.92L21.03 14.92Q21.03 14.57 20.85 14.33L20.85 14.33L20.85 14.33Q20.66 14.10 20.35 13.94L20.35 13.94L20.35 13.94Q20.05 13.77 19.67 13.68L19.67 13.68L19.67 13.68Q19.30 13.58 18.93 13.52L18.93 13.52L18.93 13.52Q18.55 13.45 18.22 13.41L18.22 13.41L18.22 13.41Q17.89 13.36 17.68 13.31L17.68 13.31L17.68 13.31Q17.34 13.22 17.11 13.07L17.11 13.07L17.11 13.07Q16.88 12.93 16.74 12.75L16.74 12.75L16.74 12.75Q16.60 12.56 16.54 12.36L16.54 12.36L16.54 12.36Q16.47 12.15 16.47 11.95L16.47 11.95L16.47 11.95Q16.47 11.49 16.72 11.10L16.72 11.10L16.72 11.10Q16.97 10.71 17.36 10.40L17.36 10.40L17.36 10.40Q17.76 10.08 18.26 9.84L18.26 9.84L18.26 9.84Q18.76 9.60 19.28 9.44L19.28 9.44L19.28 9.44Q19.80 9.28 20.28 9.19L20.28 9.19L20.28 9.19Q20.77 9.11 21.12 9.11L21.12 9.11L21.12 9.11Q21.53 9.11 21.85 9.16L21.85 9.16L21.85 9.16Q22.17 9.20 22.37 9.26L22.37 9.26L22.37 9.26Q22.56 9.32 22.61 9.42L22.61 9.42L22.61 9.42Q22.66 9.52 22.61 9.64L22.61 9.64L22.61 9.64Q22.56 9.76 22.42 9.91L22.42 9.91L22.42 9.91Q22.27 10.05 22.07 10.20L22.07 10.20L22.07 10.20Q21.92 10.32 21.74 10.43L21.74 10.43L21.74 10.43Q21.58 10.53 21.39 10.63L21.39 10.63L21.39 10.63Q21.20 10.73 20.99 10.80L20.99 10.80L20.99 10.80Q21.10 10.67 21.08 10.57L21.08 10.57L21.08 10.57Q21.06 10.47 20.95 10.38L20.95 10.38L20.95 10.38Q20.84 10.30 20.66 10.24L20.66 10.24L20.66 10.24Q20.47 10.19 20.25 10.15L20.25 10.15L20.25 10.15Q20.02 10.11 19.77 10.09L19.77 10.09L19.77 10.09Q19.52 10.08 19.28 10.08L19.28 10.08L19.28 10.08Q19.05 10.08 18.82 10.09L18.82 10.09L18.82 10.09Q18.59 10.11 18.40 10.18L18.40 10.18L18.40 10.18Q18.22 10.25 18.10 10.40L18.10 10.40L18.10 10.40Q17.99 10.55 17.99 10.81L17.99 10.81L17.99 10.81Q17.99 11.03 18.08 11.26L18.08 11.26L18.08 11.26Q18.18 11.48 18.36 11.69L18.36 11.69L18.36 11.69Q18.55 11.89 18.83 12.04L18.83 12.04L18.83 12.04Q19.11 12.20 19.48 12.27L19.48 12.27L19.48 12.27Q19.77 12.33 20.12 12.35L20.12 12.35L20.12 12.35Q20.47 12.38 20.82 12.42L20.82 12.42L20.82 12.42Q21.16 12.46 21.49 12.54L21.49 12.54L21.49 12.54Q21.81 12.61 22.07 12.76L22.07 12.76L22.07 12.76Q22.32 12.91 22.47 13.16L22.47 13.16L22.47 13.16Q22.62 13.41 22.62 13.79ZM33.46 15.49L33.46 15.49L33.46 15.49Q33.17 15.78 32.84 16.01L32.84 16.01L32.84 16.01Q32.50 16.25 32.17 16.42L32.17 16.42L32.17 16.42Q31.83 16.59 31.52 16.69L31.52 16.69L31.52 16.69Q31.21 16.80 30.95 16.81L30.95 16.81L30.95 16.81Q30.80 16.82 30.58 16.81L30.58 16.81L30.58 16.81Q30.35 16.79 30.14 16.69L30.14 16.69L30.14 16.69Q29.93 16.58 29.78 16.37L29.78 16.37L29.78 16.37Q29.63 16.15 29.63 15.74L29.63 15.74L29.63 14.93L29.63 14.93Q29.26 15.30 28.84 15.64L28.84 15.64L28.84 15.64Q28.42 15.98 27.98 16.24L27.98 16.24L27.98 16.24Q27.54 16.50 27.09 16.66L27.09 16.66L27.09 16.66Q26.64 16.81 26.20 16.81L26.20 16.81L26.20 16.81Q25.64 16.81 25.22 16.56L25.22 16.56L25.22 16.56Q24.79 16.31 24.51 15.91L24.51 15.91L24.51 15.91Q24.22 15.52 24.08 15.03L24.08 15.03L24.08 15.03Q23.93 14.53 23.93 14.05L23.93 14.05L23.93 14.05Q23.93 13.69 23.99 13.33L23.99 13.33L23.99 13.33Q24.04 12.98 24.13 12.67L24.13 12.67L24.13 12.67Q24.21 12.35 24.33 12.10L24.33 12.10L24.33 12.10Q24.44 11.85 24.56 11.68L24.56 11.68L24.56 11.68Q24.79 11.38 25.14 11.09L25.14 11.09L25.14 11.09Q25.48 10.80 25.90 10.55L25.90 10.55L25.90 10.55Q26.31 10.29 26.78 10.09L26.78 10.09L26.78 10.09Q27.24 9.88 27.70 9.73L27.70 9.73L27.70 9.73Q28.16 9.58 28.60 9.50L28.60 9.50L28.60 9.50Q29.04 9.42 29.41 9.42L29.41 9.42L29.41 9.42Q29.79 9.42 30.31 9.46L30.31 9.46L30.31 9.46Q30.83 9.50 31.49 9.61L31.49 9.61L31.49 9.61Q31.47 10.40 31.45 11.00L31.45 11.00L31.45 11.00Q31.42 11.60 31.41 12.08L31.41 12.08L31.41 12.08Q31.40 12.55 31.39 12.94L31.39 12.94L31.39 12.94Q31.38 13.33 31.38 13.70L31.38 13.70L31.38 13.70Q31.38 14.08 31.37 14.44L31.37 14.44L31.37 14.44Q31.36 14.80 31.42 15.09L31.42 15.09L31.42 15.09Q31.49 15.37 31.69 15.55L31.69 15.55L31.69 15.55Q31.90 15.73 32.32 15.73L32.32 15.73L32.32 15.73Q32.57 15.73 32.86 15.66L32.86 15.66L32.86 15.66Q33.15 15.60 33.46 15.49ZM29.65 10.60L29.65 10.60L29.65 10.60Q29.24 10.49 28.77 10.44L28.77 10.44L28.77 10.44Q28.31 10.40 27.88 10.40L27.88 10.40L27.88 10.40Q27.65 10.40 27.44 10.41L27.44 10.41L27.44 10.41Q27.23 10.42 27.06 10.45L27.06 10.45L27.06 10.45Q26.89 10.47 26.76 10.50L26.76 10.50L26.76 10.50Q26.63 10.53 26.56 10.57L26.56 10.57L26.56 10.57Q26.44 10.63 26.28 10.87L26.28 10.87L26.28 10.87Q26.11 11.10 25.96 11.45L25.96 11.45L25.96 11.45Q25.81 11.80 25.71 12.24L25.71 12.24L25.71 12.24Q25.60 12.67 25.60 13.14L25.60 13.14L25.60 13.14Q25.60 13.58 25.73 14.03L25.73 14.03L25.73 14.03Q25.86 14.48 26.11 14.83L26.11 14.83L26.11 14.83Q26.36 15.19 26.73 15.41L26.73 15.41L26.73 15.41Q27.09 15.63 27.56 15.63L27.56 15.63L27.56 15.63Q28.01 15.63 28.35 15.49L28.35 15.49L28.35 15.49Q28.69 15.35 28.94 15.10L28.94 15.10L28.94 15.10Q29.20 14.85 29.36 14.51L29.36 14.51L29.36 14.51Q29.53 14.18 29.63 13.79L29.63 13.79L29.63 13.79Q29.63 13.50 29.63 13.18L29.63 13.18L29.63 13.18Q29.63 12.85 29.63 12.46L29.63 12.46L29.63 12.46Q29.63 12.07 29.64 11.61L29.64 11.61L29.64 11.61Q29.64 11.15 29.65 10.60ZM39.25 12.40L39.25 12.40L39.25 12.40Q39.16 12.58 39.03 12.81L39.03 12.81L39.03 12.81Q38.91 13.01 38.75 13.27L38.75 13.27L38.75 13.27Q38.58 13.54 38.36 13.86L38.36 13.86L38.36 13.86Q38.00 13.92 37.63 14.10L37.63 14.10L37.63 14.10Q37.25 14.27 36.88 14.52L36.88 14.52L36.88 14.52Q36.51 14.77 36.15 15.06L36.15 15.06L36.15 15.06Q35.79 15.35 35.48 15.65L35.48 15.65L35.48 15.65Q34.73 16.34 34.02 17.19L34.02 17.19L34.02 17.19Q34.23 16.72 34.53 16.18L34.53 16.18L34.53 16.18Q34.84 15.65 35.25 15.12L35.25 15.12L35.25 15.12Q35.66 14.59 36.20 14.11L36.20 14.11L36.20 14.11Q36.74 13.63 37.42 13.28L37.42 13.28L37.42 13.28Q37.22 13.13 36.94 12.92L36.94 12.92L36.94 12.92Q36.65 12.70 36.33 12.45L36.33 12.45L36.33 12.45Q36.00 12.20 35.66 11.94L35.66 11.94L35.66 11.94Q35.32 11.68 35.01 11.43L35.01 11.43L35.01 11.43Q34.70 11.18 34.44 10.97L34.44 10.97L34.44 10.97Q34.18 10.76 34.02 10.61L34.02 10.61L34.02 10.61Q34.18 10.38 34.41 10.16L34.41 10.16L34.41 10.16Q34.60 9.97 34.88 9.75L34.88 9.75L34.88 9.75Q35.16 9.54 35.55 9.37L35.55 9.37L35.55 9.37Q36.61 10.36 37.31 10.95L37.31 10.95L37.31 10.95Q38.02 11.55 38.45 11.87L38.45 11.87L38.45 11.87Q38.96 12.24 39.25 12.40Z"></path></g><!----><!----></svg>