<svg data-v-423bf9ae="" xmlns="http://www.w3.org/2000/svg" viewBox="0 0 467.707849464436 60" class="font"><!----><!----><defs data-v-423bf9ae=""><linearGradient data-v-423bf9ae="" gradientTransform="rotate(25)" id="0cf163cb-6d83-41fd-81da-b277942da3eb" x1="0%" y1="0%" x2="100%" y2="0%"><stop data-v-423bf9ae="" offset="0%" style="stop-color: rgb(253, 146, 69); stop-opacity: 1;"></stop><stop data-v-423bf9ae="" offset="100%" style="stop-color: rgb(6, 169, 107); stop-opacity: 1;"></stop></linearGradient></defs><g data-v-423bf9ae="" id="63ee02f7-88ec-431a-9842-e547a5d1d601" fill="url(#0cf163cb-6d83-41fd-81da-b277942da3eb)" transform="matrix(3.562945335887036,0,0,3.562945335887036,-2.1021389209193444,-9.121139379160283)"><path d="M5.82 15.96L5.82 15.96L5.82 15.96Q5.66 16.18 5.43 16.41L5.43 16.41L5.43 16.41Q5.24 16.60 4.95 16.81L4.95 16.81L4.95 16.81Q4.67 17.02 4.29 17.19L4.29 17.19L4.29 17.19Q3.23 16.21 2.53 15.61L2.53 15.61L2.53 15.61Q1.82 15.01 1.39 14.69L1.39 14.69L1.39 14.69Q0.88 14.31 0.59 14.16L0.59 14.16L0.59 14.16Q0.68 13.98 0.81 13.75L0.81 13.75L0.81 13.75Q0.92 13.56 1.09 13.29L1.09 13.29L1.09 13.29Q1.26 13.02 1.48 12.69L1.48 12.69L1.48 12.69Q1.84 12.63 2.21 12.46L2.21 12.46L2.21 12.46Q2.58 12.28 2.96 12.04L2.96 12.04L2.96 12.04Q3.33 11.79 3.68 11.50L3.68 11.50L3.68 11.50Q4.04 11.20 4.36 10.91L4.36 10.91L4.36 10.91Q5.11 10.22 5.82 9.37L5.82 9.37L5.82 9.37Q5.61 9.84 5.31 10.38L5.31 10.38L5.31 10.38Q5.00 10.91 4.59 11.44L4.59 11.44L4.59 11.44Q4.17 11.97 3.63 12.45L3.63 12.45L3.63 12.45Q3.10 12.93 2.42 13.28L2.42 13.28L2.42 13.28Q2.62 13.43 2.90 13.65L2.90 13.65L2.90 13.65Q3.19 13.86 3.51 14.11L3.51 14.11L3.51 14.11Q3.83 14.36 4.18 14.62L4.18 14.62L4.18 14.62Q4.52 14.88 4.83 15.13L4.83 15.13L4.83 15.13Q5.14 15.37 5.40 15.59L5.40 15.59L5.40 15.59Q5.66 15.80 5.82 15.96ZM15.46 5.36L15.46 5.36L15.46 5.36Q14.71 7.68 13.54 9.96L13.54 9.96L13.54 9.96Q13.03 10.94 12.38 12.00L12.38 12.00L12.38 12.00Q11.74 13.06 10.93 14.12L10.93 14.12L10.93 14.12Q10.13 15.19 9.17 16.21L9.17 16.21L9.17 16.21Q8.20 17.23 7.07 18.12L7.07 18.12L7.07 18.12Q8.08 17.03 8.86 15.98L8.86 15.98L8.86 15.98Q9.65 14.94 10.24 13.97L10.24 13.97L10.24 13.97Q10.83 13.01 11.25 12.13L11.25 12.13L11.25 12.13Q11.66 11.25 11.95 10.49L11.95 10.49L11.95 10.49Q12.23 9.73 12.40 9.10L12.40 9.10L12.40 9.10Q12.57 8.47 12.67 7.99L12.67 7.99L12.67 7.99Q12.76 7.51 12.80 7.21L12.80 7.21L12.80 7.21Q12.84 6.90 12.87 6.79L12.87 6.79L12.87 6.79Q12.90 6.64 13.04 6.54L13.04 6.54L13.04 6.54Q13.18 6.43 13.39 6.35L13.39 6.35L13.39 6.35Q13.60 6.26 13.86 6.18L13.86 6.18L13.86 6.18Q14.12 6.10 14.39 5.99L14.39 5.99L14.39 5.99Q14.67 5.89 14.94 5.74L14.94 5.74L14.94 5.74Q15.22 5.58 15.46 5.36ZM23.02 2.58L23.02 2.58L23.02 2.58Q22.96 2.58 22.81 2.71L22.81 2.71L22.81 2.71Q22.67 2.84 22.51 3.01L22.51 3.01L22.51 3.01Q22.35 3.17 22.21 3.31L22.21 3.31L22.21 3.31Q22.07 3.45 22.01 3.45L22.01 3.45L22.01 3.45Q21.45 3.51 21.02 3.65L21.02 3.65L21.02 3.65Q20.60 3.79 20.30 4.05L20.30 4.05L20.30 4.05Q20.01 4.31 19.85 4.71L19.85 4.71L19.85 4.71Q19.70 5.10 19.69 5.65L19.69 5.65L19.69 5.65Q19.67 6.32 19.63 6.98L19.63 6.98L19.63 6.98Q19.58 7.63 19.44 8.23L19.44 8.23L19.44 8.23Q19.29 8.83 19.01 9.37L19.01 9.37L19.01 9.37Q18.74 9.90 18.26 10.32L18.26 10.32L18.26 10.32Q18.54 10.47 18.79 10.66L18.79 10.66L18.79 10.66Q19.04 10.86 19.23 11.10L19.23 11.10L19.23 11.10Q19.42 11.34 19.53 11.63L19.53 11.63L19.53 11.63Q19.65 11.92 19.65 12.27L19.65 12.27L19.65 12.27Q19.65 12.56 19.61 12.84L19.61 12.84L19.61 12.84Q19.58 13.13 19.53 13.42L19.53 13.42L19.53 13.42Q19.49 13.71 19.45 13.99L19.45 13.99L19.45 13.99Q19.41 14.28 19.41 14.57L19.41 14.57L19.41 14.57Q19.38 15.44 19.55 16.08L19.55 16.08L19.55 16.08Q19.72 16.72 20.05 17.13L20.05 17.13L20.05 17.13Q20.38 17.55 20.84 17.75L20.84 17.75L20.84 17.75Q21.31 17.94 21.88 17.94L21.88 17.94L21.88 17.94Q22.08 17.94 22.30 17.92L22.30 17.92L22.30 17.92Q22.52 17.90 22.74 17.84L22.74 17.84L22.74 17.84Q22.50 17.89 22.28 18.11L22.28 18.11L22.28 18.11Q22.06 18.33 21.85 18.58L21.85 18.58L21.85 18.58Q21.64 18.84 21.44 19.06L21.44 19.06L21.44 19.06Q21.24 19.28 21.03 19.35L21.03 19.35L21.03 19.35Q20.93 19.37 20.83 19.38L20.83 19.38L20.83 19.38Q20.73 19.40 20.62 19.40L20.62 19.40L20.62 19.40Q20.31 19.40 19.97 19.30L19.97 19.30L19.97 19.30Q19.63 19.21 19.29 19.03L19.29 19.03L19.29 19.03Q18.96 18.85 18.66 18.59L18.66 18.59L18.66 18.59Q18.35 18.33 18.13 18.02L18.13 18.02L18.13 18.02Q17.91 17.70 17.79 17.33L17.79 17.33L17.79 17.33Q17.66 16.96 17.68 16.54L17.68 16.54L17.68 16.54Q17.69 16.33 17.71 16.04L17.71 16.04L17.71 16.04Q17.73 15.76 17.74 15.44L17.74 15.44L17.74 15.44Q17.76 15.12 17.77 14.79L17.77 14.79L17.77 14.79Q17.78 14.46 17.78 14.15L17.78 14.15L17.78 14.15Q17.78 13.72 17.75 13.43L17.75 13.43L17.75 13.43Q17.71 13.14 17.63 12.95L17.63 12.95L17.63 12.95Q17.55 12.76 17.42 12.63L17.42 12.63L17.42 12.63Q17.29 12.51 17.10 12.41L17.10 12.41L17.10 12.41Q16.92 12.30 16.67 12.20L16.67 12.20L16.67 12.20Q16.42 12.10 16.10 11.94L16.10 11.94L16.10 11.94Q16.12 11.94 16.25 11.83L16.25 11.83L16.25 11.83Q16.39 11.72 16.57 11.56L16.57 11.56L16.57 11.56Q16.75 11.40 16.96 11.22L16.96 11.22L16.96 11.22Q17.16 11.04 17.31 10.92L17.31 10.92L17.31 10.92Q17.56 10.49 17.64 10.03L17.64 10.03L17.64 10.03Q17.71 9.56 17.71 9.06L17.71 9.06L17.71 9.06Q17.71 8.72 17.70 8.37L17.70 8.37L17.70 8.37Q17.68 8.03 17.68 7.68L17.68 7.68L17.68 7.68Q17.68 7.14 17.89 6.54L17.89 6.54L17.89 6.54Q18.09 5.95 18.44 5.38L18.44 5.38L18.44 5.38Q18.79 4.81 19.26 4.30L19.26 4.30L19.26 4.30Q19.74 3.79 20.28 3.41L20.28 3.41L20.28 3.41Q20.83 3.02 21.42 2.80L21.42 2.80L21.42 2.80Q22.02 2.57 22.61 2.57L22.61 2.57L22.61 2.57Q22.71 2.57 22.81 2.57L22.81 2.57L22.81 2.57Q22.91 2.57 23.02 2.58ZM29.39 13.79L29.39 13.79L29.39 13.79Q29.39 14.26 29.15 14.67L29.15 14.67L29.15 14.67Q28.90 15.07 28.49 15.42L28.49 15.42L28.49 15.42Q28.09 15.76 27.58 16.02L27.58 16.02L27.58 16.02Q27.07 16.28 26.54 16.45L26.54 16.45L26.54 16.45Q26.02 16.63 25.53 16.71L25.53 16.71L25.53 16.71Q25.03 16.80 24.66 16.77L24.66 16.77L24.66 16.77Q24.34 16.75 23.99 16.67L23.99 16.67L23.99 16.67Q23.64 16.58 23.37 16.46L23.37 16.46L23.37 16.46Q23.10 16.34 22.97 16.19L22.97 16.19L22.97 16.19Q22.83 16.05 22.96 15.91L22.96 15.91L22.96 15.91Q23.08 15.78 23.22 15.65L23.22 15.65L23.22 15.65Q23.37 15.52 23.56 15.38L23.56 15.38L23.56 15.38Q23.76 15.24 24.04 15.09L24.04 15.09L24.04 15.09Q24.31 14.93 24.69 14.74L24.69 14.74L24.69 14.74Q24.57 14.93 24.63 15.07L24.63 15.07L24.63 15.07Q24.69 15.22 24.86 15.33L24.86 15.33L24.86 15.33Q25.03 15.44 25.27 15.52L25.27 15.52L25.27 15.52Q25.51 15.59 25.75 15.64L25.75 15.64L25.75 15.64Q25.98 15.69 26.18 15.71L26.18 15.71L26.18 15.71Q26.37 15.73 26.46 15.73L26.46 15.73L26.46 15.73Q26.70 15.73 26.94 15.71L26.94 15.71L26.94 15.71Q27.19 15.68 27.38 15.60L27.38 15.60L27.38 15.60Q27.57 15.52 27.69 15.36L27.69 15.36L27.69 15.36Q27.81 15.20 27.81 14.92L27.81 14.92L27.81 14.92Q27.81 14.57 27.62 14.33L27.62 14.33L27.62 14.33Q27.43 14.10 27.13 13.94L27.13 13.94L27.13 13.94Q26.82 13.77 26.45 13.68L26.45 13.68L26.45 13.68Q26.07 13.58 25.70 13.52L25.70 13.52L25.70 13.52Q25.33 13.45 25.00 13.41L25.00 13.41L25.00 13.41Q24.66 13.36 24.45 13.31L24.45 13.31L24.45 13.31Q24.11 13.22 23.88 13.07L23.88 13.07L23.88 13.07Q23.65 12.93 23.51 12.75L23.51 12.75L23.51 12.75Q23.37 12.56 23.31 12.36L23.31 12.36L23.31 12.36Q23.25 12.15 23.25 11.95L23.25 11.95L23.25 11.95Q23.25 11.49 23.50 11.10L23.50 11.10L23.50 11.10Q23.74 10.71 24.14 10.40L24.14 10.40L24.14 10.40Q24.53 10.08 25.04 9.84L25.04 9.84L25.04 9.84Q25.54 9.60 26.06 9.44L26.06 9.44L26.06 9.44Q26.57 9.28 27.06 9.19L27.06 9.19L27.06 9.19Q27.54 9.11 27.90 9.11L27.90 9.11L27.90 9.11Q28.31 9.11 28.63 9.16L28.63 9.16L28.63 9.16Q28.94 9.20 29.14 9.26L29.14 9.26L29.14 9.26Q29.33 9.32 29.38 9.42L29.38 9.42L29.38 9.42Q29.44 9.52 29.38 9.64L29.38 9.64L29.38 9.64Q29.33 9.76 29.19 9.91L29.19 9.91L29.19 9.91Q29.05 10.05 28.85 10.20L28.85 10.20L28.85 10.20Q28.69 10.32 28.51 10.43L28.51 10.43L28.51 10.43Q28.36 10.53 28.16 10.63L28.16 10.63L28.16 10.63Q27.97 10.73 27.77 10.80L27.77 10.80L27.77 10.80Q27.87 10.67 27.85 10.57L27.85 10.57L27.85 10.57Q27.84 10.47 27.73 10.38L27.73 10.38L27.73 10.38Q27.62 10.30 27.43 10.24L27.43 10.24L27.43 10.24Q27.25 10.19 27.02 10.15L27.02 10.15L27.02 10.15Q26.80 10.11 26.55 10.09L26.55 10.09L26.55 10.09Q26.30 10.08 26.06 10.08L26.06 10.08L26.06 10.08Q25.83 10.08 25.59 10.09L25.59 10.09L25.59 10.09Q25.36 10.11 25.18 10.18L25.18 10.18L25.18 10.18Q24.99 10.25 24.88 10.40L24.88 10.40L24.88 10.40Q24.76 10.55 24.76 10.81L24.76 10.81L24.76 10.81Q24.76 11.03 24.86 11.26L24.86 11.26L24.86 11.26Q24.95 11.48 25.14 11.69L25.14 11.69L25.14 11.69Q25.33 11.89 25.61 12.04L25.61 12.04L25.61 12.04Q25.89 12.20 26.26 12.27L26.26 12.27L26.26 12.27Q26.54 12.33 26.89 12.35L26.89 12.35L26.89 12.35Q27.24 12.38 27.59 12.42L27.59 12.42L27.59 12.42Q27.94 12.46 28.26 12.54L28.26 12.54L28.26 12.54Q28.59 12.61 28.84 12.76L28.84 12.76L28.84 12.76Q29.09 12.91 29.24 13.16L29.24 13.16L29.24 13.16Q29.39 13.41 29.39 13.79ZM40.23 15.49L40.23 15.49L40.23 15.49Q39.94 15.78 39.61 16.01L39.61 16.01L39.61 16.01Q39.28 16.25 38.94 16.42L38.94 16.42L38.94 16.42Q38.61 16.59 38.29 16.69L38.29 16.69L38.29 16.69Q37.98 16.80 37.72 16.81L37.72 16.81L37.72 16.81Q37.58 16.82 37.35 16.81L37.35 16.81L37.35 16.81Q37.13 16.79 36.92 16.69L36.92 16.69L36.92 16.69Q36.71 16.58 36.56 16.37L36.56 16.37L36.56 16.37Q36.41 16.15 36.41 15.74L36.41 15.74L36.41 14.93L36.41 14.93Q36.03 15.30 35.62 15.64L35.62 15.64L35.62 15.64Q35.20 15.98 34.76 16.24L34.76 16.24L34.76 16.24Q34.32 16.50 33.87 16.66L33.87 16.66L33.87 16.66Q33.41 16.81 32.98 16.81L32.98 16.81L32.98 16.81Q32.42 16.81 31.99 16.56L31.99 16.56L31.99 16.56Q31.57 16.31 31.28 15.91L31.28 15.91L31.28 15.91Q30.99 15.52 30.85 15.03L30.85 15.03L30.85 15.03Q30.71 14.53 30.71 14.05L30.71 14.05L30.71 14.05Q30.71 13.69 30.76 13.33L30.76 13.33L30.76 13.33Q30.82 12.98 30.90 12.67L30.90 12.67L30.90 12.67Q30.99 12.35 31.10 12.10L31.10 12.10L31.10 12.10Q31.21 11.85 31.34 11.68L31.34 11.68L31.34 11.68Q31.56 11.38 31.91 11.09L31.91 11.09L31.91 11.09Q32.26 10.80 32.67 10.55L32.67 10.55L32.67 10.55Q33.09 10.29 33.55 10.09L33.55 10.09L33.55 10.09Q34.02 9.88 34.48 9.73L34.48 9.73L34.48 9.73Q34.94 9.58 35.38 9.50L35.38 9.50L35.38 9.50Q35.81 9.42 36.18 9.42L36.18 9.42L36.18 9.42Q36.57 9.42 37.08 9.46L37.08 9.46L37.08 9.46Q37.60 9.50 38.27 9.61L38.27 9.61L38.27 9.61Q38.24 10.40 38.22 11.00L38.22 11.00L38.22 11.00Q38.20 11.60 38.19 12.08L38.19 12.08L38.19 12.08Q38.17 12.55 38.17 12.94L38.17 12.94L38.17 12.94Q38.16 13.33 38.16 13.70L38.16 13.70L38.16 13.70Q38.16 14.08 38.14 14.44L38.14 14.44L38.14 14.44Q38.13 14.80 38.20 15.09L38.20 15.09L38.20 15.09Q38.27 15.37 38.47 15.55L38.47 15.55L38.47 15.55Q38.67 15.73 39.09 15.73L39.09 15.73L39.09 15.73Q39.35 15.73 39.63 15.66L39.63 15.66L39.63 15.66Q39.92 15.60 40.23 15.49ZM36.42 10.60L36.42 10.60L36.42 10.60Q36.01 10.49 35.55 10.44L35.55 10.44L35.55 10.44Q35.08 10.40 34.66 10.40L34.66 10.40L34.66 10.40Q34.43 10.40 34.22 10.41L34.22 10.41L34.22 10.41Q34.01 10.42 33.84 10.45L33.84 10.45L33.84 10.45Q33.67 10.47 33.54 10.50L33.54 10.50L33.54 10.50Q33.41 10.53 33.34 10.57L33.34 10.57L33.34 10.57Q33.22 10.63 33.05 10.87L33.05 10.87L33.05 10.87Q32.89 11.10 32.74 11.45L32.74 11.45L32.74 11.45Q32.59 11.80 32.48 12.24L32.48 12.24L32.48 12.24Q32.38 12.67 32.38 13.14L32.38 13.14L32.38 13.14Q32.38 13.58 32.50 14.03L32.50 14.03L32.50 14.03Q32.63 14.48 32.88 14.83L32.88 14.83L32.88 14.83Q33.13 15.19 33.50 15.41L33.50 15.41L33.50 15.41Q33.87 15.63 34.34 15.63L34.34 15.63L34.34 15.63Q34.78 15.63 35.12 15.49L35.12 15.49L35.12 15.49Q35.46 15.35 35.72 15.10L35.72 15.10L35.72 15.10Q35.97 14.85 36.14 14.51L36.14 14.51L36.14 14.51Q36.31 14.18 36.41 13.79L36.41 13.79L36.41 13.79Q36.41 13.50 36.41 13.18L36.41 13.18L36.41 13.18Q36.41 12.85 36.41 12.46L36.41 12.46L36.41 12.46Q36.41 12.07 36.41 11.61L36.41 11.61L36.41 11.61Q36.42 11.15 36.42 10.60ZM48.95 12.47L48.95 12.47L48.95 12.47Q48.95 13.07 48.72 13.61L48.72 13.61L48.72 13.61Q48.49 14.15 48.10 14.62L48.10 14.62L48.10 14.62Q47.71 15.08 47.20 15.46L47.20 15.46L47.20 15.46Q46.69 15.85 46.13 16.13L46.13 16.13L46.13 16.13Q45.58 16.41 45.01 16.57L45.01 16.57L45.01 16.57Q44.44 16.74 43.94 16.78L43.94 16.78L43.94 16.78Q43.72 16.80 43.42 16.78L43.42 16.78L43.42 16.78Q43.12 16.75 42.80 16.67L42.80 16.67L42.80 16.67Q42.49 16.58 42.17 16.41L42.17 16.41L42.17 16.41Q41.86 16.24 41.62 15.94L41.62 15.94L41.62 15.94Q41.37 15.65 41.22 15.21L41.22 15.21L41.22 15.21Q41.07 14.78 41.07 14.18L41.07 14.18L41.07 14.18Q41.07 13.73 41.08 13.13L41.08 13.13L41.08 13.13Q41.09 12.52 41.10 11.84L41.10 11.84L41.10 11.84Q41.12 11.15 41.14 10.41L41.14 10.41L41.14 10.41Q41.15 9.68 41.17 8.96L41.17 8.96L41.17 8.96Q41.19 8.24 41.21 7.58L41.21 7.58L41.21 7.58Q41.23 6.91 41.24 6.36L41.24 6.36L41.24 6.36Q41.25 5.82 41.25 5.42L41.25 5.42L41.25 5.42Q41.26 5.02 41.25 4.85L41.25 4.85L41.25 4.85Q41.23 4.61 41.11 4.44L41.11 4.44L41.11 4.44Q41.01 4.29 40.80 4.21L40.80 4.21L40.80 4.21Q40.59 4.12 40.22 4.22L40.22 4.22L40.22 4.22Q40.48 4.09 40.74 3.94L40.74 3.94L40.74 3.94Q41.01 3.79 41.28 3.67L41.28 3.67L41.28 3.67Q41.56 3.55 41.83 3.48L41.83 3.48L41.83 3.48Q42.10 3.40 42.38 3.40L42.38 3.40L42.38 3.40Q42.53 3.40 42.66 3.42L42.66 3.42L42.66 3.42Q42.79 3.45 42.89 3.52L42.89 3.52L42.89 3.52Q42.99 3.60 43.05 3.71L43.05 3.71L43.05 3.71Q43.11 3.83 43.11 4.00L43.11 4.00L43.11 4.00Q43.11 4.12 43.11 4.46L43.11 4.46L43.11 4.46Q43.10 4.81 43.09 5.31L43.09 5.31L43.09 5.31Q43.08 5.82 43.06 6.45L43.06 6.45L43.06 6.45Q43.05 7.08 43.03 7.76L43.03 7.76L43.03 7.76Q43.01 8.45 42.99 9.16L42.99 9.16L42.99 9.16Q42.98 9.88 42.96 10.55L42.96 10.55L42.96 10.55Q43.32 10.30 43.69 10.09L43.69 10.09L43.69 10.09Q44.06 9.88 44.44 9.74L44.44 9.74L44.44 9.74Q44.83 9.59 45.23 9.51L45.23 9.51L45.23 9.51Q45.63 9.42 46.05 9.42L46.05 9.42L46.05 9.42Q46.74 9.42 47.28 9.67L47.28 9.67L47.28 9.67Q47.82 9.93 48.19 10.35L48.19 10.35L48.19 10.35Q48.56 10.77 48.76 11.32L48.76 11.32L48.76 11.32Q48.95 11.87 48.95 12.47ZM42.90 13.79L42.90 13.79L42.90 13.79Q42.90 14.13 43.11 14.51L43.11 14.51L43.11 14.51Q43.32 14.89 43.67 15.21L43.67 15.21L43.67 15.21Q44.02 15.53 44.47 15.74L44.47 15.74L44.47 15.74Q44.92 15.96 45.41 15.96L45.41 15.96L45.41 15.96Q45.89 15.96 46.22 15.72L46.22 15.72L46.22 15.72Q46.55 15.49 46.76 15.13L46.76 15.13L46.76 15.13Q46.96 14.77 47.06 14.34L47.06 14.34L47.06 14.34Q47.15 13.91 47.15 13.52L47.15 13.52L47.15 13.52Q47.15 12.89 46.94 12.33L46.94 12.33L46.94 12.33Q46.74 11.76 46.36 11.34L46.36 11.34L46.36 11.34Q45.99 10.91 45.47 10.66L45.47 10.66L45.47 10.66Q44.95 10.41 44.33 10.41L44.33 10.41L44.33 10.41Q44.08 10.41 43.88 10.45L43.88 10.45L43.88 10.45Q43.68 10.48 43.57 10.53L43.57 10.53L43.57 10.53Q43.47 10.59 43.38 10.74L43.38 10.74L43.38 10.74Q43.29 10.89 43.20 11.10L43.20 11.10L43.20 11.10Q43.12 11.31 43.05 11.57L43.05 11.57L43.05 11.57Q42.98 11.83 42.93 12.11L42.93 12.11L42.93 12.11Q42.92 12.71 42.91 13.16L42.91 13.16L42.91 13.16Q42.90 13.61 42.90 13.79ZM53.08 3.77L53.08 3.77L53.08 3.77Q53.08 3.97 53.09 4.15L53.09 4.15L53.09 4.15Q53.09 4.33 53.09 4.50L53.09 4.50L53.09 4.50Q53.09 4.91 53.03 5.20L53.03 5.20L53.03 5.20Q52.96 5.48 52.71 5.65L52.71 5.65L52.71 5.65Q52.55 5.76 52.33 5.91L52.33 5.91L52.33 5.91Q51.95 6.15 51.12 6.66L51.12 6.66L51.12 6.66Q51.20 6.44 51.24 6.13L51.24 6.13L51.24 6.13Q51.28 5.82 51.29 5.54L51.29 5.54L51.29 5.54Q51.30 5.21 51.29 4.85L51.29 4.85L51.29 4.85Q51.72 4.63 52.05 4.43L52.05 4.43L52.05 4.43Q52.38 4.24 52.61 4.09L52.61 4.09L52.61 4.09Q52.88 3.92 53.08 3.77ZM55.49 15.42L55.49 15.42L55.49 15.42Q54.71 15.93 54.16 16.23L54.16 16.23L54.16 16.23Q53.62 16.52 53.23 16.67L53.23 16.67L53.23 16.67Q52.84 16.81 52.58 16.83L52.58 16.83L52.58 16.83Q52.31 16.85 52.09 16.81L52.09 16.81L52.09 16.81Q51.89 16.78 51.70 16.71L51.70 16.71L51.70 16.71Q51.51 16.64 51.35 16.46L51.35 16.46L51.35 16.46Q51.20 16.28 51.11 15.93L51.11 15.93L51.11 15.93Q51.01 15.59 51.01 15.00L51.01 15.00L51.01 15.00Q51.01 14.51 51.04 14.03L51.04 14.03L51.04 14.03Q51.06 13.55 51.10 13.07L51.10 13.07L51.10 13.07Q51.13 12.60 51.14 12.13L51.14 12.13L51.14 12.13Q51.16 11.66 51.15 11.20L51.15 11.20L51.15 11.20Q51.13 10.75 50.98 10.54L50.98 10.54L50.98 10.54Q50.83 10.33 50.53 10.33L50.53 10.33L50.53 10.33Q50.42 10.33 50.28 10.36L50.28 10.36L50.28 10.36Q50.14 10.38 49.98 10.44L49.98 10.44L49.98 10.44Q50.23 10.27 50.49 10.09L50.49 10.09L50.49 10.09Q50.75 9.92 51.02 9.78L51.02 9.78L51.02 9.78Q51.28 9.65 51.55 9.56L51.55 9.56L51.55 9.56Q51.82 9.47 52.09 9.47L52.09 9.47L52.09 9.47Q52.38 9.47 52.59 9.60L52.59 9.60L52.59 9.60Q52.81 9.73 52.87 10.04L52.87 10.04L52.87 10.04Q52.89 10.15 52.90 10.38L52.90 10.38L52.90 10.38Q52.91 10.60 52.91 10.90L52.91 10.90L52.91 10.90Q52.91 11.35 52.89 11.89L52.89 11.89L52.89 11.89Q52.88 12.43 52.86 12.95L52.86 12.95L52.86 12.95Q52.83 13.47 52.81 13.91L52.81 13.91L52.81 13.91Q52.79 14.36 52.79 14.59L52.79 14.59L52.79 14.59Q52.78 14.82 52.87 15.05L52.87 15.05L52.87 15.05Q52.96 15.27 53.13 15.45L53.13 15.45L53.13 15.45Q53.31 15.63 53.56 15.75L53.56 15.75L53.56 15.75Q53.82 15.86 54.15 15.86L54.15 15.86L54.15 15.86Q54.43 15.86 54.77 15.76L54.77 15.76L54.77 15.76Q55.10 15.65 55.49 15.42ZM62.02 14.98L62.02 14.98L62.02 14.98Q61.48 15.41 60.96 15.75L60.96 15.75L60.96 15.75Q60.44 16.09 59.95 16.32L59.95 16.32L59.95 16.32Q59.47 16.56 59.02 16.67L59.02 16.67L59.02 16.67Q58.57 16.78 58.18 16.75L58.18 16.75L58.18 16.75Q57.78 16.73 57.45 16.56L57.45 16.56L57.45 16.56Q57.12 16.40 56.88 16.07L56.88 16.07L56.88 16.07Q56.64 15.74 56.51 15.23L56.51 15.23L56.51 15.23Q56.38 14.72 56.40 13.99L56.40 13.99L56.40 13.99Q56.41 13.60 56.43 13.07L56.43 13.07L56.43 13.07Q56.44 12.61 56.46 11.94L56.46 11.94L56.46 11.94Q56.47 11.26 56.49 10.36L56.49 10.36L56.49 10.36Q56.34 10.37 56.13 10.39L56.13 10.39L56.13 10.39Q55.92 10.41 55.68 10.46L55.68 10.46L55.68 10.46Q55.44 10.51 55.18 10.60L55.18 10.60L55.18 10.60Q54.92 10.68 54.67 10.81L54.67 10.81L54.67 10.81Q54.87 10.68 55.08 10.55L55.08 10.55L55.08 10.55Q55.29 10.41 55.46 10.29L55.46 10.29L55.46 10.29Q55.66 10.17 55.84 10.04L55.84 10.04L55.84 10.04Q56.03 9.94 56.17 9.69L56.17 9.69L56.17 9.69Q56.29 9.47 56.40 9.06L56.40 9.06L56.40 9.06Q56.50 8.66 56.50 7.98L56.50 7.98L56.50 7.98Q56.98 7.74 57.31 7.54L57.31 7.54L57.31 7.54Q57.63 7.34 57.84 7.21L57.84 7.21L57.84 7.21Q58.08 7.04 58.22 6.92L58.22 6.92L58.19 9.22L58.19 9.22Q58.37 9.23 58.54 9.23L58.54 9.23L58.54 9.23Q58.71 9.24 58.84 9.24L58.84 9.24L59.13 9.24L59.13 9.24Q59.72 9.25 60.25 9.22L60.25 9.22L60.25 9.22Q60.47 9.21 60.71 9.19L60.71 9.19L60.71 9.19Q60.94 9.17 61.16 9.14L61.16 9.14L61.16 9.14Q61.38 9.11 61.57 9.06L61.57 9.06L61.57 9.06Q61.76 9.02 61.89 8.96L61.89 8.96L61.89 8.96Q61.52 9.32 61.08 9.58L61.08 9.58L61.08 9.58Q60.63 9.83 60.16 9.99L60.16 9.99L60.16 9.99Q59.68 10.15 59.18 10.23L59.18 10.23L59.18 10.23Q58.67 10.32 58.18 10.34L58.18 10.34L58.18 10.34Q58.17 11.32 58.16 12.26L58.16 12.26L58.16 12.26Q58.15 13.21 58.15 14.12L58.15 14.12L58.15 14.12Q58.16 14.42 58.30 14.69L58.30 14.69L58.30 14.69Q58.45 14.96 58.70 15.16L58.70 15.16L58.70 15.16Q58.96 15.35 59.31 15.47L59.31 15.47L59.31 15.47Q59.66 15.59 60.08 15.59L60.08 15.59L60.08 15.59Q60.51 15.59 61.01 15.45L61.01 15.45L61.01 15.45Q61.50 15.31 62.02 14.98ZM71.83 15.49L71.83 15.49L71.83 15.49Q71.54 15.78 71.21 16.01L71.21 16.01L71.21 16.01Q70.88 16.25 70.55 16.42L70.55 16.42L70.55 16.42Q70.21 16.59 69.90 16.69L69.90 16.69L69.90 16.69Q69.58 16.80 69.32 16.81L69.32 16.81L69.32 16.81Q69.18 16.82 68.95 16.81L68.95 16.81L68.95 16.81Q68.73 16.79 68.52 16.69L68.52 16.69L68.52 16.69Q68.31 16.58 68.16 16.37L68.16 16.37L68.16 16.37Q68.01 16.15 68.01 15.74L68.01 15.74L68.01 14.93L68.01 14.93Q67.63 15.30 67.22 15.64L67.22 15.64L67.22 15.64Q66.80 15.98 66.36 16.24L66.36 16.24L66.36 16.24Q65.92 16.50 65.47 16.66L65.47 16.66L65.47 16.66Q65.02 16.81 64.58 16.81L64.58 16.81L64.58 16.81Q64.02 16.81 63.59 16.56L63.59 16.56L63.59 16.56Q63.17 16.31 62.88 15.91L62.88 15.91L62.88 15.91Q62.60 15.52 62.45 15.03L62.45 15.03L62.45 15.03Q62.31 14.53 62.31 14.05L62.31 14.05L62.31 14.05Q62.31 13.69 62.36 13.33L62.36 13.33L62.36 13.33Q62.42 12.98 62.50 12.67L62.50 12.67L62.50 12.67Q62.59 12.35 62.70 12.10L62.70 12.10L62.70 12.10Q62.82 11.85 62.94 11.68L62.94 11.68L62.94 11.68Q63.16 11.38 63.51 11.09L63.51 11.09L63.51 11.09Q63.86 10.80 64.27 10.55L64.27 10.55L64.27 10.55Q64.69 10.29 65.15 10.09L65.15 10.09L65.15 10.09Q65.62 9.88 66.08 9.73L66.08 9.73L66.08 9.73Q66.54 9.58 66.98 9.50L66.98 9.50L66.98 9.50Q67.42 9.42 67.79 9.42L67.79 9.42L67.79 9.42Q68.17 9.42 68.69 9.46L68.69 9.46L68.69 9.46Q69.21 9.50 69.87 9.61L69.87 9.61L69.87 9.61Q69.84 10.40 69.82 11.00L69.82 11.00L69.82 11.00Q69.80 11.60 69.79 12.08L69.79 12.08L69.79 12.08Q69.77 12.55 69.77 12.94L69.77 12.94L69.77 12.94Q69.76 13.33 69.76 13.70L69.76 13.70L69.76 13.70Q69.76 14.08 69.75 14.44L69.75 14.44L69.75 14.44Q69.73 14.80 69.80 15.09L69.80 15.09L69.80 15.09Q69.87 15.37 70.07 15.55L70.07 15.55L70.07 15.55Q70.27 15.73 70.70 15.73L70.70 15.73L70.70 15.73Q70.95 15.73 71.24 15.66L71.24 15.66L71.24 15.66Q71.52 15.60 71.83 15.49ZM68.02 10.60L68.02 10.60L68.02 10.60Q67.61 10.49 67.15 10.44L67.15 10.44L67.15 10.44Q66.68 10.40 66.26 10.40L66.26 10.40L66.26 10.40Q66.03 10.40 65.82 10.41L65.82 10.41L65.82 10.41Q65.61 10.42 65.44 10.45L65.44 10.45L65.44 10.45Q65.27 10.47 65.14 10.50L65.14 10.50L65.14 10.50Q65.01 10.53 64.94 10.57L64.94 10.57L64.94 10.57Q64.82 10.63 64.65 10.87L64.65 10.87L64.65 10.87Q64.49 11.10 64.34 11.45L64.34 11.45L64.34 11.45Q64.19 11.80 64.08 12.24L64.08 12.24L64.08 12.24Q63.98 12.67 63.98 13.14L63.98 13.14L63.98 13.14Q63.98 13.58 64.11 14.03L64.11 14.03L64.11 14.03Q64.24 14.48 64.49 14.83L64.49 14.83L64.49 14.83Q64.74 15.19 65.10 15.41L65.10 15.41L65.10 15.41Q65.47 15.63 65.94 15.63L65.94 15.63L65.94 15.63Q66.38 15.63 66.73 15.49L66.73 15.49L66.73 15.49Q67.07 15.35 67.32 15.10L67.32 15.10L67.32 15.10Q67.57 14.85 67.74 14.51L67.74 14.51L67.74 14.51Q67.91 14.18 68.01 13.79L68.01 13.79L68.01 13.79Q68.01 13.50 68.01 13.18L68.01 13.18L68.01 13.18Q68.01 12.85 68.01 12.46L68.01 12.46L68.01 12.46Q68.01 12.07 68.01 11.61L68.01 11.61L68.01 11.61Q68.02 11.15 68.02 10.60ZM77.32 15.29L77.32 15.29L77.32 15.29Q76.64 15.76 76.17 16.06L76.17 16.06L76.17 16.06Q75.71 16.37 75.36 16.55L75.36 16.55L75.36 16.55Q75.02 16.73 74.74 16.80L74.74 16.80L74.74 16.80Q74.46 16.86 74.16 16.86L74.16 16.86L74.16 16.86Q73.89 16.86 73.64 16.74L73.64 16.74L73.64 16.74Q73.39 16.61 73.20 16.27L73.20 16.27L73.20 16.27Q73.00 15.93 72.88 15.34L72.88 15.34L72.88 15.34Q72.77 14.75 72.77 13.82L72.77 13.82L72.77 13.82Q72.77 12.89 72.79 11.88L72.79 11.88L72.79 11.88Q72.81 10.87 72.83 9.85L72.83 9.85L72.83 9.85Q72.86 8.83 72.88 7.85L72.88 7.85L72.88 7.85Q72.90 6.88 72.90 6.03L72.90 6.03L72.90 6.03Q72.90 5.20 72.65 4.73L72.65 4.73L72.65 4.73Q72.39 4.27 71.87 4.27L71.87 4.27L71.87 4.27Q71.72 4.27 71.52 4.31L71.52 4.31L71.52 4.31Q71.33 4.35 71.12 4.46L71.12 4.46L71.12 4.46Q71.39 4.27 71.68 4.07L71.68 4.07L71.68 4.07Q71.98 3.87 72.28 3.71L72.28 3.71L72.28 3.71Q72.58 3.54 72.90 3.44L72.90 3.44L72.90 3.44Q73.21 3.33 73.51 3.33L73.51 3.33L73.51 3.33Q73.90 3.33 74.13 3.52L74.13 3.52L74.13 3.52Q74.35 3.72 74.45 4.01L74.45 4.01L74.45 4.01Q74.56 4.29 74.58 4.63L74.58 4.63L74.58 4.63Q74.61 4.97 74.61 5.26L74.61 5.26L74.61 5.26Q74.60 5.69 74.59 6.31L74.59 6.31L74.59 6.31Q74.58 6.92 74.57 7.63L74.57 7.63L74.57 7.63Q74.55 8.34 74.54 9.10L74.54 9.10L74.54 9.10Q74.53 9.86 74.51 10.59L74.51 10.59L74.51 10.59Q74.50 11.31 74.49 11.97L74.49 11.97L74.49 11.97Q74.48 12.63 74.46 13.13L74.46 13.13L74.46 13.13Q74.45 13.79 74.56 14.28L74.56 14.28L74.56 14.28Q74.67 14.77 74.87 15.09L74.87 15.09L74.87 15.09Q75.08 15.40 75.37 15.55L75.37 15.55L75.37 15.55Q75.65 15.70 76.00 15.70L76.00 15.70L76.00 15.70Q76.63 15.70 77.32 15.29ZM80.01 3.77L80.01 3.77L80.01 3.77Q80.01 3.97 80.01 4.15L80.01 4.15L80.01 4.15Q80.02 4.33 80.02 4.50L80.02 4.50L80.02 4.50Q80.02 4.91 79.95 5.20L79.95 5.20L79.95 5.20Q79.88 5.48 79.63 5.65L79.63 5.65L79.63 5.65Q79.48 5.76 79.26 5.91L79.26 5.91L79.26 5.91Q78.88 6.15 78.05 6.66L78.05 6.66L78.05 6.66Q78.13 6.44 78.17 6.13L78.17 6.13L78.17 6.13Q78.20 5.82 78.22 5.54L78.22 5.54L78.22 5.54Q78.23 5.21 78.22 4.85L78.22 4.85L78.22 4.85Q78.65 4.63 78.98 4.43L78.98 4.43L78.98 4.43Q79.30 4.24 79.54 4.09L79.54 4.09L79.54 4.09Q79.81 3.92 80.01 3.77ZM82.41 15.42L82.41 15.42L82.41 15.42Q81.63 15.93 81.09 16.23L81.09 16.23L81.09 16.23Q80.55 16.52 80.16 16.67L80.16 16.67L80.16 16.67Q79.77 16.81 79.50 16.83L79.50 16.83L79.50 16.83Q79.24 16.85 79.02 16.81L79.02 16.81L79.02 16.81Q78.82 16.78 78.63 16.71L78.63 16.71L78.63 16.71Q78.44 16.64 78.28 16.46L78.28 16.46L78.28 16.46Q78.13 16.28 78.03 15.93L78.03 15.93L78.03 15.93Q77.94 15.59 77.94 15.00L77.94 15.00L77.94 15.00Q77.94 14.51 77.96 14.03L77.96 14.03L77.96 14.03Q77.99 13.55 78.02 13.07L78.02 13.07L78.02 13.07Q78.05 12.60 78.07 12.13L78.07 12.13L78.07 12.13Q78.09 11.66 78.07 11.20L78.07 11.20L78.07 11.20Q78.06 10.75 77.91 10.54L77.91 10.54L77.91 10.54Q77.76 10.33 77.46 10.33L77.46 10.33L77.46 10.33Q77.34 10.33 77.21 10.36L77.21 10.36L77.21 10.36Q77.07 10.38 76.91 10.44L76.91 10.44L76.91 10.44Q77.16 10.27 77.42 10.09L77.42 10.09L77.42 10.09Q77.68 9.92 77.94 9.78L77.94 9.78L77.94 9.78Q78.21 9.65 78.48 9.56L78.48 9.56L78.48 9.56Q78.75 9.47 79.02 9.47L79.02 9.47L79.02 9.47Q79.30 9.47 79.52 9.60L79.52 9.60L79.52 9.60Q79.73 9.73 79.80 10.04L79.80 10.04L79.80 10.04Q79.82 10.15 79.83 10.38L79.83 10.38L79.83 10.38Q79.84 10.60 79.84 10.90L79.84 10.90L79.84 10.90Q79.84 11.35 79.82 11.89L79.82 11.89L79.82 11.89Q79.80 12.43 79.78 12.95L79.78 12.95L79.78 12.95Q79.76 13.47 79.74 13.91L79.74 13.91L79.74 13.91Q79.72 14.36 79.71 14.59L79.71 14.59L79.71 14.59Q79.71 14.82 79.80 15.05L79.80 15.05L79.80 15.05Q79.88 15.27 80.06 15.45L80.06 15.45L80.06 15.45Q80.23 15.63 80.49 15.75L80.49 15.75L80.49 15.75Q80.75 15.86 81.07 15.86L81.07 15.86L81.07 15.86Q81.36 15.86 81.70 15.76L81.70 15.76L81.70 15.76Q82.03 15.65 82.41 15.42ZM90.71 14.92L90.71 14.92L90.71 14.92Q90.28 15.43 89.77 15.82L89.77 15.82L89.77 15.82Q89.26 16.21 88.69 16.48L88.69 16.48L88.69 16.48Q88.13 16.75 87.53 16.88L87.53 16.88L87.53 16.88Q86.93 17.02 86.31 17.02L86.31 17.02L86.31 17.02Q85.82 17.02 85.35 16.96L85.35 16.96L85.35 16.96Q84.89 16.90 84.43 16.82L84.43 16.82L84.43 16.82Q83.98 16.75 83.53 16.69L83.53 16.69L83.53 16.69Q83.08 16.63 82.63 16.63L82.63 16.63L82.63 16.63Q82.39 16.63 82.14 16.65L82.14 16.65L82.14 16.65Q81.89 16.67 81.68 16.73L81.68 16.73L81.68 16.73Q81.93 16.60 82.17 16.43L82.17 16.43L82.17 16.43Q82.41 16.26 82.63 16.06L82.63 16.06L82.63 16.06Q82.84 15.86 83.04 15.64L83.04 15.64L83.04 15.64Q83.23 15.43 83.39 15.22L83.39 15.22L83.39 15.22Q83.77 14.75 84.08 14.21L84.08 14.21L84.08 14.21Q84.40 13.64 84.77 13.08L84.77 13.08L84.77 13.08Q85.13 12.51 85.51 12.00L85.51 12.00L85.51 12.00Q85.89 11.49 86.26 11.06L86.26 11.06L86.26 11.06Q86.62 10.64 86.93 10.36L86.93 10.36L86.93 10.36Q86.79 10.37 86.65 10.37L86.65 10.37L86.65 10.37Q86.50 10.37 86.35 10.37L86.35 10.37L86.35 10.37Q85.76 10.37 85.22 10.30L85.22 10.30L85.22 10.30Q84.67 10.23 84.12 10.23L84.12 10.23L84.12 10.23Q83.90 10.23 83.64 10.25L83.64 10.25L83.64 10.25Q83.38 10.27 83.11 10.33L83.11 10.33L83.11 10.33Q82.83 10.38 82.56 10.48L82.56 10.48L82.56 10.48Q82.28 10.58 82.05 10.75L82.05 10.75L82.05 10.75Q82.45 10.34 82.85 10.02L82.85 10.02L82.85 10.02Q83.26 9.71 83.70 9.49L83.70 9.49L83.70 9.49Q84.14 9.27 84.63 9.15L84.63 9.15L84.63 9.15Q85.11 9.04 85.65 9.04L85.65 9.04L85.65 9.04Q86.06 9.04 86.46 9.08L86.46 9.08L86.46 9.08Q86.86 9.12 87.26 9.17L87.26 9.17L87.26 9.17Q87.65 9.22 88.04 9.26L88.04 9.26L88.04 9.26Q88.42 9.30 88.81 9.30L88.81 9.30L88.81 9.30Q88.92 9.30 89.03 9.30L89.03 9.30L89.03 9.30Q89.14 9.30 89.25 9.29L89.25 9.29L89.25 9.29Q88.86 9.43 88.55 9.67L88.55 9.67L88.55 9.67Q88.23 9.91 88.00 10.13L88.00 10.13L88.00 10.13Q87.73 10.40 87.51 10.69L87.51 10.69L87.51 10.69Q87.36 10.92 87.13 11.27L87.13 11.27L87.13 11.27Q86.91 11.61 86.63 12.03L86.63 12.03L86.63 12.03Q86.35 12.44 86.03 12.90L86.03 12.90L86.03 12.90Q85.71 13.36 85.37 13.81L85.37 13.81L85.37 13.81Q85.03 14.25 84.67 14.67L84.67 14.67L84.67 14.67Q84.31 15.08 83.96 15.41L83.96 15.41L83.96 15.41Q84.06 15.39 84.17 15.39L84.17 15.39L84.17 15.39Q84.27 15.39 84.39 15.39L84.39 15.39L84.39 15.39Q84.88 15.39 85.35 15.45L85.35 15.45L85.35 15.45Q85.82 15.51 86.27 15.58L86.27 15.58L86.27 15.58Q86.73 15.65 87.18 15.71L87.18 15.71L87.18 15.71Q87.63 15.77 88.09 15.77L88.09 15.77L88.09 15.77Q88.57 15.77 88.96 15.70L88.96 15.70L88.96 15.70Q89.36 15.63 89.68 15.52L89.68 15.52L89.68 15.52Q90.01 15.40 90.26 15.25L90.26 15.25L90.26 15.25Q90.51 15.09 90.71 14.92ZM100.41 15.49L100.41 15.49L100.41 15.49Q100.12 15.78 99.79 16.01L99.79 16.01L99.79 16.01Q99.46 16.25 99.12 16.42L99.12 16.42L99.12 16.42Q98.79 16.59 98.47 16.69L98.47 16.69L98.47 16.69Q98.16 16.80 97.90 16.81L97.90 16.81L97.90 16.81Q97.75 16.82 97.53 16.81L97.53 16.81L97.53 16.81Q97.30 16.79 97.09 16.69L97.09 16.69L97.09 16.69Q96.89 16.58 96.74 16.37L96.74 16.37L96.74 16.37Q96.58 16.15 96.58 15.74L96.58 15.74L96.58 14.93L96.58 14.93Q96.21 15.30 95.79 15.64L95.79 15.64L95.79 15.64Q95.38 15.98 94.93 16.24L94.93 16.24L94.93 16.24Q94.49 16.50 94.04 16.66L94.04 16.66L94.04 16.66Q93.59 16.81 93.15 16.81L93.15 16.81L93.15 16.81Q92.59 16.81 92.17 16.56L92.17 16.56L92.17 16.56Q91.75 16.31 91.46 15.91L91.46 15.91L91.46 15.91Q91.17 15.52 91.03 15.03L91.03 15.03L91.03 15.03Q90.88 14.53 90.88 14.05L90.88 14.05L90.88 14.05Q90.88 13.69 90.94 13.33L90.94 13.33L90.94 13.33Q90.99 12.98 91.08 12.67L91.08 12.67L91.08 12.67Q91.16 12.35 91.28 12.10L91.28 12.10L91.28 12.10Q91.39 11.85 91.51 11.68L91.51 11.68L91.51 11.68Q91.74 11.38 92.09 11.09L92.09 11.09L92.09 11.09Q92.44 10.80 92.85 10.55L92.85 10.55L92.85 10.55Q93.26 10.29 93.73 10.09L93.73 10.09L93.73 10.09Q94.19 9.88 94.65 9.73L94.65 9.73L94.65 9.73Q95.12 9.58 95.55 9.50L95.55 9.50L95.55 9.50Q95.99 9.42 96.36 9.42L96.36 9.42L96.36 9.42Q96.74 9.42 97.26 9.46L97.26 9.46L97.26 9.46Q97.78 9.50 98.44 9.61L98.44 9.61L98.44 9.61Q98.42 10.40 98.40 11.00L98.40 11.00L98.40 11.00Q98.38 11.60 98.36 12.08L98.36 12.08L98.36 12.08Q98.35 12.55 98.34 12.94L98.34 12.94L98.34 12.94Q98.33 13.33 98.33 13.70L98.33 13.70L98.33 13.70Q98.33 14.08 98.32 14.44L98.32 14.44L98.32 14.44Q98.31 14.80 98.38 15.09L98.38 15.09L98.38 15.09Q98.44 15.37 98.65 15.55L98.65 15.55L98.65 15.55Q98.85 15.73 99.27 15.73L99.27 15.73L99.27 15.73Q99.52 15.73 99.81 15.66L99.81 15.66L99.81 15.66Q100.10 15.60 100.41 15.49ZM96.60 10.60L96.60 10.60L96.60 10.60Q96.19 10.49 95.72 10.44L95.72 10.44L95.72 10.44Q95.26 10.40 94.83 10.40L94.83 10.40L94.83 10.40Q94.60 10.40 94.39 10.41L94.39 10.41L94.39 10.41Q94.19 10.42 94.01 10.45L94.01 10.45L94.01 10.45Q93.84 10.47 93.71 10.50L93.71 10.50L93.71 10.50Q93.58 10.53 93.52 10.57L93.52 10.57L93.52 10.57Q93.39 10.63 93.23 10.87L93.23 10.87L93.23 10.87Q93.06 11.10 92.91 11.45L92.91 11.45L92.91 11.45Q92.76 11.80 92.66 12.24L92.66 12.24L92.66 12.24Q92.55 12.67 92.55 13.14L92.55 13.14L92.55 13.14Q92.55 13.58 92.68 14.03L92.68 14.03L92.68 14.03Q92.81 14.48 93.06 14.83L93.06 14.83L93.06 14.83Q93.31 15.19 93.68 15.41L93.68 15.41L93.68 15.41Q94.04 15.63 94.51 15.63L94.51 15.63L94.51 15.63Q94.96 15.63 95.30 15.49L95.30 15.49L95.30 15.49Q95.64 15.35 95.89 15.10L95.89 15.10L95.89 15.10Q96.15 14.85 96.31 14.51L96.31 14.51L96.31 14.51Q96.48 14.18 96.58 13.79L96.58 13.79L96.58 13.79Q96.58 13.50 96.58 13.18L96.58 13.18L96.58 13.18Q96.58 12.85 96.58 12.46L96.58 12.46L96.58 12.46Q96.58 12.07 96.59 11.61L96.59 11.61L96.59 11.61Q96.59 11.15 96.60 10.60ZM110.91 15.59L110.91 15.59L110.91 15.59Q109.98 16.22 109.33 16.50L109.33 16.50L109.33 16.50Q108.68 16.77 108.23 16.77L108.23 16.77L108.23 16.77Q108.05 16.77 107.85 16.71L107.85 16.71L107.85 16.71Q107.66 16.65 107.48 16.51L107.48 16.51L107.48 16.51Q107.30 16.37 107.16 16.14L107.16 16.14L107.16 16.14Q107.01 15.90 106.93 15.54L106.93 15.54L106.93 15.54Q106.59 15.78 106.19 16.02L106.19 16.02L106.19 16.02Q105.78 16.26 105.35 16.45L105.35 16.45L105.35 16.45Q104.92 16.65 104.48 16.76L104.48 16.76L104.48 16.76Q104.05 16.88 103.65 16.88L103.65 16.88L103.65 16.88Q102.98 16.88 102.45 16.61L102.45 16.61L102.45 16.61Q101.92 16.34 101.54 15.89L101.54 15.89L101.54 15.89Q101.17 15.45 100.97 14.88L100.97 14.88L100.97 14.88Q100.77 14.31 100.77 13.71L100.77 13.71L100.77 13.71Q100.77 13.04 100.98 12.51L100.98 12.51L100.98 12.51Q101.19 11.98 101.54 11.57L101.54 11.57L101.54 11.57Q101.90 11.16 102.38 10.84L102.38 10.84L102.38 10.84Q102.85 10.52 103.38 10.28L103.38 10.28L103.38 10.28Q103.91 10.04 104.47 9.86L104.47 9.86L104.47 9.86Q105.03 9.68 105.56 9.53L105.56 9.53L105.56 9.53Q105.61 9.52 105.68 9.52L105.68 9.52L105.68 9.52Q105.73 9.51 105.81 9.51L105.81 9.51L105.81 9.51Q105.89 9.50 105.99 9.50L105.99 9.50L105.99 9.50Q106.18 9.50 106.43 9.53L106.43 9.53L106.43 9.53Q106.67 9.55 106.94 9.61L106.94 9.61L107.08 5.30L107.08 5.30Q107.07 4.92 106.95 4.66L106.95 4.66L106.95 4.66Q106.89 4.55 106.81 4.45L106.81 4.45L106.81 4.45Q106.73 4.35 106.61 4.29L106.61 4.29L106.61 4.29Q106.49 4.24 106.32 4.23L106.32 4.23L106.32 4.23Q106.16 4.22 105.94 4.29L105.94 4.29L105.94 4.29Q106.20 4.17 106.50 4.02L106.50 4.02L106.50 4.02Q106.80 3.86 107.10 3.73L107.10 3.73L107.10 3.73Q107.40 3.60 107.68 3.50L107.68 3.50L107.68 3.50Q107.97 3.41 108.21 3.41L108.21 3.41L108.21 3.41Q108.47 3.41 108.64 3.55L108.64 3.55L108.64 3.55Q108.81 3.68 108.83 3.97L108.83 3.97L108.83 3.97Q108.86 4.16 108.86 4.50L108.86 4.50L108.86 4.50Q108.86 4.83 108.86 5.30L108.86 5.30L108.86 5.30Q108.86 5.85 108.85 6.53L108.85 6.53L108.85 6.53Q108.84 7.21 108.83 7.95L108.83 7.95L108.83 7.95Q108.81 8.69 108.79 9.45L108.79 9.45L108.79 9.45Q108.77 10.22 108.76 10.95L108.76 10.95L108.76 10.95Q108.75 11.68 108.74 12.34L108.74 12.34L108.74 12.34Q108.73 13.00 108.73 13.52L108.73 13.52L108.73 13.52Q108.73 13.93 108.78 14.33L108.78 14.33L108.78 14.33Q108.83 14.72 108.98 15.04L108.98 15.04L108.98 15.04Q109.14 15.35 109.41 15.55L109.41 15.55L109.41 15.55Q109.69 15.74 110.15 15.74L110.15 15.74L110.15 15.74Q110.32 15.74 110.51 15.71L110.51 15.71L110.51 15.71Q110.69 15.67 110.91 15.59ZM106.90 11.11L106.90 11.11L106.90 11.11Q106.66 10.90 106.39 10.77L106.39 10.77L106.39 10.77Q106.11 10.63 105.82 10.54L105.82 10.54L105.82 10.54Q105.53 10.46 105.24 10.42L105.24 10.42L105.24 10.42Q104.95 10.38 104.68 10.38L104.68 10.38L104.68 10.38Q104.08 10.38 103.66 10.56L103.66 10.56L103.66 10.56Q103.24 10.74 102.98 11.07L102.98 11.07L102.98 11.07Q102.71 11.40 102.59 11.85L102.59 11.85L102.59 11.85Q102.46 12.31 102.46 12.87L102.46 12.87L102.46 12.87Q102.46 13.47 102.65 14.01L102.65 14.01L102.65 14.01Q102.84 14.55 103.18 14.95L103.18 14.95L103.18 14.95Q103.52 15.36 104.01 15.60L104.01 15.60L104.01 15.60Q104.50 15.83 105.10 15.83L105.10 15.83L105.10 15.83Q105.52 15.83 105.82 15.73L105.82 15.73L105.82 15.73Q106.12 15.62 106.32 15.43L106.32 15.43L106.32 15.43Q106.52 15.24 106.65 14.98L106.65 14.98L106.65 14.98Q106.77 14.71 106.85 14.39L106.85 14.39L106.85 14.39Q106.85 14.12 106.85 13.76L106.85 13.76L106.85 13.76Q106.85 13.41 106.86 12.98L106.86 12.98L106.86 12.98Q106.87 12.56 106.88 12.09L106.88 12.09L106.88 12.09Q106.89 11.61 106.90 11.11ZM115.27 11.66L120.29 10.02L120.29 10.02Q119.50 10.40 118.83 10.70L118.83 10.70L118.83 10.70Q118.15 11.00 117.64 11.20L117.64 11.20L117.64 11.20Q117.04 11.44 116.55 11.63L116.55 11.63L116.55 11.63Q116.24 11.76 115.87 11.89L115.87 11.89L115.87 11.89Q115.49 12.02 115.09 12.15L115.09 12.15L115.09 12.15Q114.69 12.28 114.27 12.40L114.27 12.40L114.27 12.40Q113.85 12.53 113.44 12.65L113.44 12.65L113.44 12.79L113.44 12.79Q113.44 13.49 113.66 14.05L113.66 14.05L113.66 14.05Q113.88 14.62 114.28 15.01L114.28 15.01L114.28 15.01Q114.67 15.40 115.23 15.61L115.23 15.61L115.23 15.61Q115.78 15.82 116.45 15.82L116.45 15.82L116.45 15.82Q116.80 15.82 117.14 15.76L117.14 15.76L117.14 15.76Q117.49 15.71 117.80 15.62L117.80 15.62L117.80 15.62Q118.11 15.52 118.38 15.39L118.38 15.39L118.38 15.39Q118.66 15.26 118.87 15.11L118.87 15.11L118.87 15.11Q118.35 15.58 117.80 15.89L117.80 15.89L117.80 15.89Q117.25 16.21 116.70 16.40L116.70 16.40L116.70 16.40Q116.15 16.60 115.61 16.69L115.61 16.69L115.61 16.69Q115.08 16.78 114.58 16.78L114.58 16.78L114.58 16.78Q114.08 16.80 113.60 16.63L113.60 16.63L113.60 16.63Q113.12 16.46 112.72 16.12L112.72 16.12L112.72 16.12Q112.33 15.78 112.05 15.27L112.05 15.27L112.05 15.27Q111.78 14.76 111.70 14.08L111.70 14.08L111.70 14.08Q111.67 13.84 111.67 13.62L111.67 13.62L111.67 13.62Q111.67 13.40 111.71 13.18L111.71 13.18L111.71 13.18Q111.47 13.27 111.28 13.34L111.28 13.34L111.28 13.34Q111.08 13.42 110.96 13.49L110.96 13.49L110.96 13.49Q111.16 13.36 111.36 13.24L111.36 13.24L111.36 13.24Q111.56 13.12 111.75 13.02L111.75 13.02L111.75 13.02Q111.86 12.48 112.15 12.00L112.15 12.00L112.15 12.00Q112.43 11.51 112.83 11.09L112.83 11.09L112.83 11.09Q113.23 10.68 113.72 10.34L113.72 10.34L113.72 10.34Q114.21 10.00 114.74 9.76L114.74 9.76L114.74 9.76Q115.27 9.52 115.82 9.39L115.82 9.39L115.82 9.39Q116.37 9.26 116.88 9.26L116.88 9.26L116.88 9.26Q117.22 9.26 117.46 9.37L117.46 9.37L117.46 9.37Q117.69 9.47 117.78 9.73L117.78 9.73L117.78 9.73Q117.82 10.00 117.58 10.32L117.58 10.32L117.58 10.32Q117.48 10.45 117.30 10.61L117.30 10.61L117.30 10.61Q117.13 10.76 116.85 10.93L116.85 10.93L116.85 10.93Q116.57 11.10 116.19 11.29L116.19 11.29L116.19 11.29Q115.80 11.47 115.27 11.66L115.27 11.66ZM114.86 11.68L114.86 11.68L114.86 11.68Q115.16 11.55 115.39 11.40L115.39 11.40L115.39 11.40Q115.63 11.25 115.76 11.09L115.76 11.09L115.76 11.09Q115.90 10.92 115.90 10.75L115.90 10.75L115.90 10.75Q115.91 10.57 115.76 10.37L115.76 10.37L115.76 10.37Q115.66 10.22 115.48 10.16L115.48 10.16L115.48 10.16Q115.29 10.10 115.10 10.10L115.10 10.10L115.10 10.10Q114.93 10.10 114.76 10.14L114.76 10.14L114.76 10.14Q114.60 10.18 114.47 10.24L114.47 10.24L114.47 10.24Q114.39 10.29 114.25 10.45L114.25 10.45L114.25 10.45Q114.11 10.61 113.96 10.87L113.96 10.87L113.96 10.87Q113.80 11.12 113.67 11.46L113.67 11.46L113.67 11.46Q113.54 11.80 113.48 12.20L113.48 12.20L113.48 12.20Q113.91 12.04 114.26 11.92L114.26 11.92L114.26 11.92Q114.60 11.80 114.86 11.68ZM125.64 10.02L125.64 10.02L125.64 10.02Q125.63 10.01 125.49 10.13L125.49 10.13L125.49 10.13Q125.36 10.24 125.17 10.40L125.17 10.40L125.17 10.40Q124.99 10.56 124.79 10.74L124.79 10.74L124.79 10.74Q124.58 10.92 124.44 11.04L124.44 11.04L124.44 11.04Q124.19 11.46 124.11 11.93L124.11 11.93L124.11 11.93Q124.03 12.39 124.03 12.89L124.03 12.89L124.03 12.89Q124.03 13.23 124.04 13.58L124.04 13.58L124.04 13.58Q124.06 13.92 124.06 14.27L124.06 14.27L124.06 14.27Q124.06 14.82 123.86 15.41L123.86 15.41L123.86 15.41Q123.66 16.00 123.31 16.57L123.31 16.57L123.31 16.57Q122.96 17.14 122.49 17.65L122.49 17.65L122.49 17.65Q122.01 18.16 121.47 18.55L121.47 18.55L121.47 18.55Q120.93 18.94 120.34 19.17L120.34 19.17L120.34 19.17Q119.75 19.40 119.16 19.40L119.16 19.40L119.16 19.40Q119.05 19.40 118.95 19.39L118.95 19.39L118.95 19.39Q118.84 19.39 118.73 19.37L118.73 19.37L118.73 19.37Q118.77 19.38 118.85 19.32L118.85 19.32L118.85 19.32Q118.93 19.26 119.03 19.16L119.03 19.16L119.03 19.16Q119.12 19.07 119.23 18.96L119.23 18.96L119.23 18.96Q119.34 18.85 119.44 18.75L119.44 18.75L119.44 18.75Q119.53 18.66 119.62 18.59L119.62 18.59L119.62 18.59Q119.70 18.53 119.74 18.52L119.74 18.52L119.74 18.52Q120.22 18.47 120.53 18.40L120.53 18.40L120.53 18.40Q120.84 18.32 121.05 18.22L121.05 18.22L121.05 18.22Q121.27 18.12 121.42 17.98L121.42 17.98L121.42 17.98Q121.57 17.84 121.72 17.66L121.72 17.66L121.72 17.66Q121.89 17.21 121.98 16.72L121.98 16.72L121.98 16.72Q122.06 16.24 122.11 15.74L122.11 15.74L122.11 15.74Q122.16 15.24 122.19 14.73L122.19 14.73L122.19 14.73Q122.22 14.23 122.29 13.74L122.29 13.74L122.29 13.74Q122.34 13.45 122.45 13.16L122.45 13.16L122.45 13.16Q122.56 12.87 122.72 12.60L122.72 12.60L122.72 12.60Q122.87 12.33 123.06 12.09L123.06 12.09L123.06 12.09Q123.26 11.85 123.48 11.66L123.48 11.66L123.48 11.66Q123.20 11.49 122.95 11.30L122.95 11.30L122.95 11.30Q122.70 11.10 122.51 10.86L122.51 10.86L122.51 10.86Q122.32 10.62 122.21 10.33L122.21 10.33L122.21 10.33Q122.10 10.04 122.10 9.68L122.10 9.68L122.10 9.68Q122.10 9.39 122.14 9.11L122.14 9.11L122.14 9.11Q122.17 8.83 122.21 8.54L122.21 8.54L122.21 8.54Q122.25 8.26 122.29 7.97L122.29 7.97L122.29 7.97Q122.33 7.69 122.34 7.40L122.34 7.40L122.34 7.40Q122.36 6.53 122.20 5.89L122.20 5.89L122.20 5.89Q122.03 5.25 121.71 4.84L121.71 4.84L121.71 4.84Q121.39 4.42 120.92 4.22L120.92 4.22L120.92 4.22Q120.46 4.03 119.89 4.03L119.89 4.03L119.89 4.03Q119.68 4.03 119.46 4.05L119.46 4.05L119.46 4.05Q119.24 4.07 119.01 4.12L119.01 4.12L119.01 4.12Q119.25 4.06 119.47 3.84L119.47 3.84L119.47 3.84Q119.68 3.62 119.89 3.36L119.89 3.36L119.89 3.36Q120.09 3.11 120.30 2.89L120.30 2.89L120.30 2.89Q120.50 2.67 120.72 2.61L120.72 2.61L120.72 2.61Q120.81 2.59 120.91 2.57L120.91 2.57L120.91 2.57Q121.02 2.56 121.12 2.56L121.12 2.56L121.12 2.56Q121.43 2.56 121.78 2.65L121.78 2.65L121.78 2.65Q122.12 2.75 122.46 2.93L122.46 2.93L122.46 2.93Q122.79 3.11 123.09 3.37L123.09 3.37L123.09 3.37Q123.39 3.62 123.61 3.94L123.61 3.94L123.61 3.94Q123.83 4.26 123.96 4.63L123.96 4.63L123.96 4.63Q124.08 5.00 124.06 5.41L124.06 5.41L124.06 5.41Q124.04 5.63 124.03 5.92L124.03 5.92L124.03 5.92Q124.02 6.20 124.00 6.52L124.00 6.52L124.00 6.52Q123.98 6.84 123.97 7.17L123.97 7.17L123.97 7.17Q123.96 7.50 123.96 7.81L123.96 7.81L123.96 7.81Q123.96 8.24 124.00 8.53L124.00 8.53L124.00 8.53Q124.03 8.82 124.11 9.01L124.11 9.01L124.11 9.01Q124.20 9.20 124.33 9.32L124.33 9.32L124.33 9.32Q124.46 9.44 124.64 9.54L124.64 9.54L124.64 9.54Q124.82 9.65 125.07 9.75L125.07 9.75L125.07 9.75Q125.32 9.86 125.64 10.02ZM131.86 12.40L131.86 12.40L131.86 12.40Q131.76 12.58 131.63 12.81L131.63 12.81L131.63 12.81Q131.52 13.01 131.35 13.27L131.35 13.27L131.35 13.27Q131.19 13.54 130.96 13.86L130.96 13.86L130.96 13.86Q130.61 13.92 130.23 14.10L130.23 14.10L130.23 14.10Q129.86 14.27 129.49 14.52L129.49 14.52L129.49 14.52Q129.12 14.77 128.76 15.06L128.76 15.06L128.76 15.06Q128.40 15.35 128.08 15.65L128.08 15.65L128.08 15.65Q127.34 16.34 126.62 17.19L126.62 17.19L126.62 17.19Q126.83 16.72 127.14 16.18L127.14 16.18L127.14 16.18Q127.44 15.65 127.86 15.12L127.86 15.12L127.86 15.12Q128.27 14.59 128.81 14.11L128.81 14.11L128.81 14.11Q129.35 13.63 130.03 13.28L130.03 13.28L130.03 13.28Q129.83 13.13 129.54 12.92L129.54 12.92L129.54 12.92Q129.26 12.70 128.94 12.45L128.94 12.45L128.94 12.45Q128.61 12.20 128.27 11.94L128.27 11.94L128.27 11.94Q127.93 11.68 127.62 11.43L127.62 11.43L127.62 11.43Q127.31 11.18 127.05 10.97L127.05 10.97L127.05 10.97Q126.79 10.76 126.62 10.61L126.62 10.61L126.62 10.61Q126.79 10.38 127.01 10.16L127.01 10.16L127.01 10.16Q127.21 9.97 127.49 9.75L127.49 9.75L127.49 9.75Q127.77 9.54 128.16 9.37L128.16 9.37L128.16 9.37Q129.21 10.36 129.92 10.95L129.92 10.95L129.92 10.95Q130.63 11.55 131.06 11.87L131.06 11.87L131.06 11.87Q131.56 12.24 131.86 12.40Z"></path></g><!----><!----></svg>