<svg width="510" height="300" viewBox="0 0 510 300" fill="none" xmlns="http://www.w3.org/2000/svg">
<rect width="510" height="300" fill="white"/>
<path d="M39 144.255C41.0688 156.163 56.9632 150.108 63.6741 146.929C72.4539 142.842 80.8804 137.796 88.6006 131.943C95.1097 126.998 102.123 120.943 105.201 113.122C103.99 113.425 102.779 113.778 101.568 114.081C105.151 120.994 98.4904 128.966 94.151 133.507C90.7198 137.09 88.0455 141.48 85.4217 145.668C84.3116 147.434 83.252 149.25 82.1924 151.067C81.7382 151.773 81.2337 153.136 80.5272 153.64C81.7382 153.337 82.9492 152.984 84.1602 152.681C84.4125 152.732 87.2382 149.906 87.5914 149.603C90.8712 146.828 94.2014 144.053 97.5822 141.328C101.266 138.351 105.05 135.374 108.885 132.599C111.509 130.682 114.486 128.159 117.665 127.25C116.555 127.553 115.394 127.856 114.284 128.159C106.665 134.415 98.9445 142.741 95.8666 152.227C96.0684 151.622 99.2978 151.925 99.4996 151.269C102.578 141.782 110.298 133.406 117.917 127.2C117.21 127.755 115.394 127.856 114.536 128.108C112.114 128.815 109.944 130.379 107.926 131.741C104.444 134.113 101.114 136.686 97.784 139.31C92.1831 143.7 86.6832 148.292 81.2841 152.934C81.0823 153.085 80.5272 153.438 80.4768 153.691C80.4768 153.59 83.6557 152.883 84.0593 152.782C84.6144 152.631 85.119 151.269 85.3712 150.865C86.4813 148.998 87.5914 147.131 88.7015 145.314C91.3758 140.874 94.2519 136.434 97.7335 132.599C101.518 128.461 105.252 124.324 105.908 118.471C106.11 116.755 105.958 114.737 105.151 113.172C105.151 113.172 101.619 113.929 101.518 114.131C98.8941 120.842 93.2932 126.14 87.8437 130.631C81.0318 136.282 73.4126 140.975 65.642 145.113C61.9081 147.081 58.0733 149.048 54.0366 150.411C54.7935 150.158 52.8256 150.461 52.5733 150.461C51.9173 150.512 51.2109 150.461 50.555 150.411C49.2935 150.31 48.133 149.957 47.0229 149.351C44.7523 148.191 43.0367 145.718 42.5825 143.246C42.6835 143.347 39 144.103 39 144.255Z" fill="black"/>
<path d="M145.467 152.782C144.205 151.874 143.146 150.613 142.59 149.149C141.127 145.567 144.256 142.489 146.93 140.571C150.109 138.301 153.792 136.434 157.274 134.668C159.343 133.608 155.356 134.718 154.246 135.526C155.457 135.223 156.668 134.87 157.879 134.567C156.719 134.516 152.934 134.97 152.329 133.961C151.067 131.943 151.017 129.471 152.127 127.402C153.187 125.333 155.407 123.971 157.375 122.911C158.838 122.104 160.453 121.498 162.017 120.994C159.595 121.801 161.866 121.195 162.824 121.397C166.104 122.053 162.572 126.746 161.613 127.856C162.269 127.099 164.59 127.704 165.246 126.897C166.76 125.081 169.788 120.388 165.347 120.338C163.733 120.287 161.966 120.994 160.402 121.397C157.829 122.104 155.356 123.062 152.985 124.324C149.503 126.191 146.728 129.571 148.04 133.659C148.242 134.264 148.545 134.819 148.898 135.324C149.251 135.778 152.834 135.526 153.489 135.576C154.751 135.626 157.173 135.374 158.081 134.466C157.678 134.87 154.953 135.071 153.944 135.526C149.655 137.493 144.962 140.016 141.43 143.094C138.402 145.718 137.746 149.351 140.37 152.429C140.824 152.934 141.329 153.438 141.884 153.791C142.54 154.246 144.811 152.328 145.467 152.782Z" fill="black"/>
<path d="M205.865 122.507C199.86 132.548 191.232 141.025 181.948 148.594C180.182 150.058 181.544 151.117 182.553 150.764C182.755 150.713 185.278 148.796 185.429 148.695C194.764 141.984 203.09 132.851 208.943 122.457C209.498 121.498 206.874 120.842 205.865 122.507Z" fill="black"/>
<path d="M207.529 131.892C207.479 134.163 206.873 136.434 206.016 138.503C205.511 139.714 204.905 140.773 204.098 141.782C203.644 142.337 201.727 143.902 200.616 144.103C200.415 144.154 199.204 144.204 199.002 144.255C198.346 144.305 197.69 144.255 197.034 144.255C195.823 144.255 194.814 146.525 195.419 146.475C200.162 146.071 205.208 144.255 208.034 140.42C210.002 137.796 211.112 134.163 211.162 130.883C211.162 131.237 207.529 131.489 207.529 131.892Z" fill="black"/>
<path d="M206.824 148.645C204.705 147.837 203.141 145.769 203.242 143.296C203.242 143.649 200.618 144.204 200.567 144.608C200.467 147.686 202.889 149.755 205.815 150.007C206.37 150.057 206.067 149.957 206.572 149.805C206.673 149.755 206.976 149.452 207.077 149.402C207.531 149.149 207.379 148.847 206.824 148.645Z" fill="black"/>
<path d="M244.315 132.851C241.641 132.851 240.985 135.727 241.086 136.787C240.783 136.989 240.48 137.241 240.177 137.443C236.191 140.37 232.205 143.246 228.269 146.172C227.865 146.475 227.512 146.727 227.008 146.98C226.907 147.03 226.755 147.08 226.654 147.131C226.251 147.08 225.847 146.98 225.494 146.778C224.434 146.172 224.283 144.709 224.384 143.397C228.622 142.186 231.902 139.663 233.365 135.374C234.677 131.539 230.287 133.305 228.269 134.012C225.797 134.92 223.223 136.787 222.113 139.209C221.508 140.521 220.852 142.287 220.7 143.952C220.65 143.952 220.599 143.952 220.549 143.952C219.338 143.952 218.127 144.911 216.916 144.911C218.177 144.911 219.439 144.658 220.7 144.356C220.65 145.365 220.852 146.374 221.306 147.131C222.618 149.2 227.361 147.282 228.976 146.626C231.599 145.617 233.719 143.801 235.939 142.136C237.705 140.874 239.42 139.562 241.186 138.301C241.388 141.782 241.086 145.718 239.219 148.241C239.067 147.938 239.017 147.636 239.017 147.282C239.017 147.08 238.916 146.929 238.764 147.131C238.411 147.484 237.957 147.787 237.957 148.191C237.907 149.25 238.361 150.007 239.017 150.007C239.875 150.007 240.631 149.099 241.136 148.291C242.095 146.778 242.145 146.172 242.852 144.204C243.911 141.328 244.012 137.948 243.709 134.769C243.76 134.718 243.81 134.668 243.911 134.617C244.769 134.012 245.173 132.851 244.315 132.851ZM229.682 134.062C230.035 134.415 230.035 135.071 229.884 135.778C229.48 137.948 228.118 139.915 226.503 141.379C225.898 141.934 225.141 142.388 224.434 142.842C224.485 142.337 224.586 141.883 224.687 141.48C225.343 138.301 227.008 135.727 229.682 134.062Z" fill="black"/>
<path d="M291.797 123.87C291.343 123.718 290.687 123.819 290.082 124.021C289.375 124.071 287.861 124.526 287.912 124.778C286.297 125.232 285.036 126.14 283.724 127.2C279.99 130.328 277.013 134.264 274.944 138.654C274.591 139.411 274.187 140.117 273.834 140.824C271.21 142.489 268.536 144.053 265.761 145.516C265.004 145.92 264.196 146.324 263.389 146.677C263.238 146.727 263.086 146.828 262.935 146.879C261.976 146.778 262.481 145.516 262.784 144.961C263.641 143.296 265.004 141.833 266.316 140.47C266.568 140.269 266.366 139.915 266.063 140.016C265.761 140.117 265.458 140.168 265.155 140.269C264.449 140.319 263.742 140.37 263.339 140.773C263.086 141.025 262.885 141.227 262.632 141.48C260.311 143.649 257.132 145.062 254.357 146.374C253.903 146.576 253.398 146.828 252.944 147.03C252.541 147.03 252.036 146.879 251.935 146.223C251.632 144.305 254.307 141.581 255.366 140.269C256.174 139.31 256.981 138.351 257.839 137.392C258.192 136.989 257.94 136.636 257.284 136.686C256.527 136.737 255.719 136.787 255.316 137.191C254.004 138.553 243.862 146.374 249.059 147.989C250.169 148.342 251.784 147.585 252.894 147.282C254.004 146.98 255.063 146.677 256.123 146.223C257.334 145.668 258.696 145.113 259.958 144.507C259.453 145.214 259.05 145.97 258.747 146.727C258.343 147.888 259.756 147.888 261.421 147.535C261.32 147.686 262.632 147.333 263.137 147.08C264.146 146.778 265.004 146.475 265.256 146.374C267.829 145.466 270.302 144.154 272.724 142.741C272.32 143.498 271.917 144.204 271.513 144.961C270.958 146.021 269.394 148.443 270.352 149.654C271.21 150.713 275.297 148.998 276.306 148.695C276.962 148.493 275.751 148.796 275.65 148.847C274.843 149.048 273.985 149.301 273.178 149.502C276.811 148.443 273.531 149.654 273.784 147.434C273.985 145.718 275.196 143.902 276.054 142.438C276.508 141.631 276.962 140.773 277.417 139.915C277.417 139.915 277.467 139.915 277.467 139.865C280.898 137.746 284.279 135.526 287.458 133.053C288.618 132.094 295.43 124.98 291.797 123.87ZM253.096 146.98C253.903 146.727 253.6 146.929 253.096 146.98V146.98ZM284.38 133.507C282.614 135.172 280.494 136.484 278.426 137.847C279.586 135.677 280.797 133.507 282.311 131.539C283.724 129.773 285.288 128.108 286.953 126.594C287.559 126.039 288.215 125.535 288.871 125.081C290.738 126.393 285.036 132.851 284.38 133.507Z" fill="black"/>
<path d="M281.654 146.223C285.237 145.869 288.87 145.567 292.452 145.214C293.663 145.113 293.361 142.842 294.572 142.741C290.888 143.094 287.457 143.397 283.774 143.75C282.563 143.851 281.654 146.223 281.654 146.223Z" fill="black"/>
<path d="M302.24 136.383C302.947 134.617 304.057 132.649 305.873 131.893C304.662 132.195 303.502 132.548 302.291 132.851C305.52 132.094 303.906 135.475 303.149 136.787C301.332 139.764 299.011 142.438 296.841 145.214C294.974 147.636 292.956 150.108 291.896 152.984C290.433 156.869 290.332 161.209 289.929 165.296C289.828 166.557 289.727 167.869 289.273 169.08C289.121 169.434 288.818 169.736 288.516 169.938C288.314 170.089 288.112 170.19 287.91 170.342C286.548 171.149 290.433 169.989 288.718 170.14C285.64 170.392 283.924 167.567 285.135 164.842C286.245 162.268 289.525 160.805 291.896 159.746C293.36 159.09 294.823 158.585 296.337 158.131C297.548 157.778 294.873 158.484 296.488 158.08C296.64 158.03 296.791 158.03 296.892 157.979C298.002 157.727 299.516 157.223 300.373 157.021C294.621 158.232 287.86 159.796 283.218 163.58C280.392 165.901 280.089 170.796 284.58 171.048C286.043 171.149 287.607 170.544 289.02 170.14C290.332 169.787 291.846 169.434 292.704 168.273C293.612 167.012 293.461 164.539 293.612 163.126C293.864 160.2 294.167 157.324 294.773 154.447C295.731 149.856 298.708 146.374 301.534 142.792C303.653 140.117 307.438 136.585 307.892 133.053C308.245 130.429 301.988 132.801 301.029 133.507C299.869 134.415 299.062 135.98 298.506 137.342C298.86 136.686 301.938 137.14 302.24 136.383Z" fill="black"/>
<path d="M318.994 142.186C320.104 141.126 321.315 140.168 322.375 139.411C322.274 139.512 321.971 139.562 321.568 139.663C321.769 139.562 321.971 139.461 322.173 139.36C321.416 139.562 320.659 139.764 319.903 139.966C319.751 140.016 319.6 140.016 319.499 140.067C319.448 140.067 319.347 140.117 319.297 140.117C319.045 140.168 318.843 140.218 318.591 140.319C318.54 140.319 318.389 140.47 318.187 140.622C317.127 141.278 316.27 142.186 315.412 143.145C315.008 143.548 314.604 143.952 314.251 144.356C313.242 145.314 312.132 146.172 310.921 146.879C310.568 147.08 309.155 147.535 309.205 147.636C308.802 147.636 306.935 148.645 306.531 148.594C306.38 148.594 302.192 148.291 306.733 143.246C307.944 141.883 310.971 139.764 312.435 138.654C313.343 137.998 314.302 137.392 315.311 136.787C315.513 136.686 315.714 136.535 315.916 136.434C316.976 136.737 317.178 138.25 317.077 139.209C317.127 138.755 320.659 138.704 320.71 138.25C321.164 134.668 317.884 135.526 315.614 136.181C313.091 136.888 310.971 138.2 308.802 139.663C306.481 141.278 303.756 143.347 302.696 146.071C299.164 154.851 311.123 148.342 310.77 148.443C311.173 148.342 311.577 148.191 311.981 147.989C311.476 149.25 311.274 150.562 311.577 151.924C311.577 151.874 315.21 151.067 315.21 150.966C314.655 148.392 315.765 145.97 317.43 143.902C317.985 143.447 318.49 142.842 318.994 142.186Z" fill="black"/>
<path d="M336.149 138.452C331.86 138.2 326.36 140.42 324.09 144.002C322.879 145.869 322.778 148.544 325.603 147.837C328.429 147.08 330.649 145.869 332.92 143.801C340.135 137.292 345.585 130.177 352.044 122.911C350.833 123.214 350.429 123.567 349.218 123.87C346.342 127.2 345.383 130.126 342.759 133.709C340.69 136.484 338.773 139.36 337.057 142.337C335.796 144.558 334.383 147.131 334.434 149.755C334.434 149.502 336.301 149.654 336.301 149.301C336.25 146.828 337.562 144.406 338.672 142.337C340.287 139.31 342.255 136.484 344.273 133.709C346.947 129.975 349.823 126.393 352.851 122.911C352.195 123.668 349.924 123.113 349.218 123.87C346.19 127.301 343.113 130.681 340.035 134.062C337.713 136.585 335.392 139.108 332.97 141.53C330.801 143.801 328.177 146.929 325.099 147.888C326.31 147.585 327.47 147.232 328.681 146.929C325.704 147.383 327.168 143.801 328.025 142.438C328.984 140.925 330.498 139.865 332.113 139.158C330.044 140.067 331.457 139.36 332.466 139.411C333.677 139.461 334.938 138.351 336.149 138.452Z" fill="black"/>
<path d="M459.065 187.094C452.203 185.984 445.29 185.328 438.327 184.874C435.804 184.066 433.281 183.158 430.809 182.199C419.96 177.961 409.717 172.31 399.878 166.154C390.543 160.301 379.896 154.447 373.437 145.213C373.336 145.062 373.286 144.961 373.185 144.81C375.052 143.902 377.222 142.539 378.735 141.227C384.488 136.282 387.667 129.723 389.13 122.053C389.685 119.026 390.442 115.14 389.735 112.113C389.13 109.59 388.373 108.429 386.607 106.613C385.396 105.402 383.933 104.595 382.318 103.939C381.057 103.434 377.474 103.989 377.474 103.989C372.075 105.705 370.107 110.75 368.341 116.2C366.827 120.842 367.08 126.393 367.281 131.186C367.433 135.172 368.139 139.158 369.855 142.792C370.208 143.548 370.561 144.255 370.965 144.961C370.511 145.264 370.057 145.567 369.552 145.819C369.199 146.021 368.846 146.172 368.442 146.324C368.19 146.425 368.038 146.525 367.988 146.576C367.786 146.626 367.534 146.677 367.181 146.727C366.02 146.929 364.809 147.08 363.598 147.181C362.286 147.282 358.148 148.039 357.745 146.021C357.543 145.062 358.855 144.709 360.116 144.154C361.378 143.599 361.781 142.993 362.236 142.236C362.992 140.925 362.286 140.874 361.58 140.925C361.731 140.874 361.882 140.773 361.983 140.773C361.681 140.874 361.378 140.925 361.075 141.025C360.924 141.076 360.772 141.076 360.722 141.126C360.419 141.227 360.167 141.278 359.864 141.379C359.359 141.53 358.905 141.631 358.401 141.782C358.502 141.782 358.603 141.782 358.653 141.833C357.846 142.186 357.139 142.59 356.483 143.094C355.222 143.195 354.011 143.246 352.749 143.246C351.538 143.246 352.951 145.466 351.74 145.466C354.061 145.466 353.052 144.608 355.323 144.154C354.667 144.81 354.768 144.911 354.314 145.92C352.8 149.149 358.502 148.291 359.914 148.191C362.69 147.989 365.465 147.484 368.139 146.677C368.291 146.626 368.492 146.576 368.543 146.576C369.502 146.324 370.41 146.021 371.369 145.668C376.515 153.892 385.951 159.291 393.772 164.388C404.217 171.099 412.946 177.355 424.4 182.149C426.419 183.007 428.437 183.764 430.506 184.521C429.345 184.47 428.185 184.42 427.024 184.369C414.157 183.764 401.29 183.36 388.474 182.755C382.671 182.502 376.869 182.25 371.066 181.897C370.006 181.846 368.896 181.846 367.836 181.644C366.676 181.443 365.314 181.644 364.203 181.594C370.511 181.846 383.378 183.057 388.726 183.259C406.639 184.117 416.377 184.42 434.29 185.782C444.987 189.264 456.038 191.433 467.29 192.443C467.744 192.493 470.772 191.837 470.923 191.484C472.083 189.163 459.721 187.245 459.065 187.094ZM369.098 120.691C369.35 115.544 371.268 110.75 375.052 107.218C376.213 106.159 378.231 105.049 379.997 104.998C381.763 104.948 385.144 106.613 386.456 108.278C389.786 112.516 388.423 117.159 387.515 122.154C386.304 128.915 382.066 137.342 376.162 141.53C374.749 142.539 374.194 143.246 372.63 144.002C368.442 137.039 368.745 128.663 369.098 120.691ZM444.23 186.69C446.703 186.943 449.125 187.245 451.597 187.548C452.152 187.599 462.85 189.062 466.331 191.03C458.863 190.121 451.446 188.658 444.23 186.69Z" fill="black"/>
<path d="M248.249 172.36C259.249 173.067 270.249 174.025 281.199 175.085C298.254 176.75 315.813 178.314 332.414 182.805C336.652 183.966 342.506 185.631 345.281 189.314C346.088 190.374 345.886 191.534 344.928 192.392C344.322 192.947 343.515 193.3 342.758 193.603C342.455 193.754 342.102 193.855 341.799 193.956C340.487 194.41 344.322 193.351 342.859 193.654C341.85 193.855 340.891 194.057 339.882 194.209C329.286 195.924 318.286 195.672 307.538 195.47C293.41 195.167 277.263 195.521 263.236 193.704C254.456 192.594 245.323 191.131 237.199 187.346C232.506 185.126 228.066 181.695 226.855 176.397C225.594 170.796 230.791 166.86 235.685 164.539C236.341 164.236 237.048 163.934 237.754 163.681C238.208 163.479 238.713 163.328 239.167 163.177C240.529 162.723 243.355 162.369 245.424 162.117C249.259 161.663 252.841 160.755 256.726 160.906C261.217 161.057 265.758 161.612 270.047 162.924C272.469 163.681 276.001 165.044 276.607 167.869C277.011 169.837 275.497 172.209 274.639 173.874C273.226 176.75 271.208 179.273 268.836 181.443C267.726 182.452 266.465 183.31 265.153 184.016C264.497 184.42 263.791 184.722 263.084 185.025C262.58 185.227 262.025 185.429 261.469 185.631C263.034 185.126 261.015 185.58 260.763 185.58C256.575 186.135 252.286 185.479 248.249 184.42C247.19 184.117 245.676 185.681 244.616 185.378C253.648 187.8 264.497 186.892 272.066 180.837C275.749 177.86 278.272 173.622 279.887 169.232C280.593 167.314 280.139 165.75 278.575 164.388C274.235 160.654 266.667 160.25 261.268 159.947C253.951 159.544 246.584 159.998 239.52 161.865C234.525 163.177 228.419 165.195 226.098 170.392C224.181 174.732 225.997 180.08 229.126 183.108C234.071 187.901 241.538 189.869 248.048 191.383C259.653 194.057 271.612 194.915 283.469 195.621C297.194 196.429 311.02 196.883 324.744 196.227C331.758 195.874 338.772 195.117 345.533 192.897C348.762 191.837 350.831 189.667 347.652 186.993C343.515 183.511 337.662 182.099 332.565 180.888C316.267 177.053 299.364 175.489 282.712 173.874C272.469 172.865 262.176 172.007 251.882 171.351C250.671 171.301 249.41 172.461 248.249 172.36Z" fill="black"/>
<path d="M244.971 171.149C225.292 171.048 205.108 170.493 185.43 170.544C151.824 170.594 118.673 170.19 85.1184 171.25C78.3065 171.452 71.4947 171.704 64.6828 172.158C60.747 172.411 56.7104 172.612 52.8755 173.42C51.8159 173.622 50.4031 174.429 49.293 174.378C73.7148 175.589 98.1367 176.498 122.559 177.305C163.581 178.667 204.654 179.979 245.677 178.869C247.443 178.819 249.259 178.768 251.026 178.718C252.237 178.667 253.448 178.768 254.659 178.768C214.04 180.232 173.572 177.86 133.003 176.599C106.412 175.741 79.8203 174.732 53.2287 173.47C53.1278 173.47 53.0269 173.47 52.926 173.47C51.715 173.773 50.5544 174.126 49.3434 174.429C58.1736 172.612 67.6094 172.764 76.591 172.461C92.2835 171.906 107.976 171.654 123.669 171.452C155.861 171.048 188.053 170.998 220.195 171.099C227.26 171.099 234.273 171.149 241.338 171.2C242.549 171.149 243.76 171.149 244.971 171.149Z" fill="black"/>
<path d="M155.307 151.874C155.609 152.025 155.912 152.227 156.164 152.379C156.215 152.429 156.669 152.278 156.719 152.227C157.174 152.126 157.577 152.025 158.031 151.874C158.435 151.773 158.889 151.622 159.293 151.521L159.797 151.369C159.495 151.218 159.192 151.016 158.94 150.865C158.889 150.814 158.435 151.016 158.385 151.016C157.93 151.117 157.527 151.218 157.073 151.369C156.669 151.47 156.215 151.622 155.811 151.723C155.862 151.723 155.357 151.874 155.307 151.874Z" fill="black"/>
<path d="M117.967 142.691C118.421 143.044 118.875 143.347 119.329 143.7C119.38 143.75 119.884 143.548 119.884 143.548C120.338 143.447 120.742 143.347 121.146 143.195C121.549 143.094 122.003 142.943 122.407 142.842L122.912 142.691C122.458 142.337 122.003 142.035 121.549 141.681C121.499 141.631 120.994 141.833 120.994 141.833C120.54 141.934 120.137 142.035 119.682 142.186C119.279 142.287 118.825 142.438 118.421 142.539C118.522 142.489 118.017 142.691 117.967 142.691Z" fill="black"/>
</svg>