<?xml version="1.0" standalone="no"?>
<!DOCTYPE svg PUBLIC "-//W3C//DTD SVG 20010904//EN"
 "http://www.w3.org/TR/2001/REC-SVG-20010904/DTD/svg10.dtd">
<svg version="1.0" xmlns="http://www.w3.org/2000/svg"
 width="1146.000000pt" height="1280.000000pt" viewBox="0 0 1146.000000 1280.000000"
 preserveAspectRatio="xMidYMid meet">
<metadata>
Created by potrace 1.15, written by Peter Selinger 2001-2017
</metadata>
<g transform="translate(0.000000,1280.000000) scale(0.100000,-0.100000)"
fill="#000000" stroke="none">
<path d="M7255 12793 c-63 -14 -265 -77 -327 -102 -421 -168 -817 -472 -1085
-834 -50 -67 -61 -76 -83 -72 -167 32 -214 37 -308 33 -56 -3 -101 -4 -100 -2
2 1 45 18 96 38 136 52 285 132 331 177 120 116 -29 120 -453 13 -99 -24 -183
-47 -188 -50 -20 -13 -5 9 26 36 94 83 135 191 91 240 -40 45 -200 12 -405
-82 l-85 -39 43 37 c54 46 76 87 62 114 -35 65 -174 74 -330 21 -52 -17 -147
-57 -210 -89 -63 -31 -119 -58 -123 -61 -5 -2 -2 10 6 26 21 40 30 96 22 132
-6 27 -11 31 -40 31 -19 0 -67 -12 -107 -26 -107 -39 -429 -201 -587 -297
l-33 -20 7 24 c3 13 9 32 11 41 3 10 -5 28 -20 43 -65 64 -258 8 -453 -132
l-73 -52 -142 63 c-370 162 -754 270 -1148 321 -175 23 -494 30 -665 16 -202
-18 -188 -11 -180 -90 47 -490 251 -1005 545 -1376 71 -89 232 -251 298 -298
37 -27 41 -33 30 -48 -7 -10 -82 -113 -166 -229 -84 -116 -225 -316 -313 -445
l-161 -235 -91 -1 -92 -2 79 -8 c43 -5 80 -10 82 -12 3 -2 -40 -71 -94 -153
-149 -226 -202 -310 -202 -321 0 -5 11 -20 25 -33 l25 -24 -29 -30 c-16 -17
-36 -45 -45 -63 -21 -42 -10 -48 82 -46 l73 2 -35 -39 c-38 -42 -66 -90 -66
-114 0 -26 69 -60 124 -61 l51 0 -49 -50 c-50 -50 -96 -133 -96 -172 0 -65 72
-147 212 -240 l98 -65 0 -54 c0 -30 9 -76 19 -104 18 -48 86 -150 99 -150 4 1
20 19 35 41 15 22 32 39 38 37 6 -2 21 -29 34 -61 35 -87 112 -175 240 -274
48 -37 156 -103 169 -103 5 0 6 48 3 111 l-6 112 47 -84 c63 -112 174 -225
263 -268 83 -41 185 -54 195 -26 4 10 3 30 -3 45 -9 23 8 14 107 -61 437 -331
1011 -579 1545 -667 108 -18 110 -19 116 -48 10 -47 10 -84 -1 -84 -17 0 -154
-86 -303 -189 -76 -53 -144 -96 -152 -96 -7 0 -122 -131 -255 -292 l-242 -291
-30 34 c-34 39 -48 42 -55 14 -3 -11 -6 -20 -7 -20 -1 0 -29 26 -62 59 -98 94
-152 92 -164 -6 -5 -46 -7 -48 -39 -51 -60 -6 -344 68 -490 127 l-74 30 -33
-35 -33 -35 -108 41 c-103 38 -155 66 -155 83 0 4 5 49 12 100 14 105 4 181
-32 255 -19 41 -20 50 -10 102 28 135 83 233 196 350 108 113 131 179 83 235
-30 35 -97 44 -162 22 -68 -24 -176 -99 -275 -193 l-88 -84 -40 122 c-58 174
-76 279 -72 418 6 251 5 274 -13 322 -60 154 -213 118 -276 -65 -35 -101 -44
-205 -38 -436 3 -119 8 -227 11 -241 3 -14 1 -11 -4 5 -5 17 -44 203 -85 415
-51 259 -81 393 -93 410 -42 57 -129 74 -187 36 -61 -40 -105 -144 -105 -251
0 -125 49 -333 140 -597 32 -95 58 -174 56 -175 -8 -8 -239 420 -327 604 -67
143 -81 153 -157 113 -104 -56 -123 -155 -63 -335 35 -105 121 -296 171 -377
17 -27 30 -51 30 -55 0 -4 -73 66 -163 155 -104 103 -171 162 -184 162 -27 0
-85 -40 -101 -70 -19 -36 -8 -112 25 -167 64 -111 279 -300 423 -373 l55 -28
18 -73 c25 -96 102 -258 160 -335 114 -151 293 -231 538 -241 89 -4 129 -2
171 11 l56 16 228 -104 c126 -57 239 -107 252 -110 22 -7 22 -11 15 -69 -4
-34 -8 -102 -7 -152 0 -77 4 -97 27 -143 47 -90 133 -136 307 -166 150 -25
308 -36 529 -36 l204 0 206 203 c297 291 485 461 593 535 l47 32 21 -22 c60
-63 172 -351 274 -706 l15 -53 -62 -67 c-137 -147 -167 -196 -167 -273 0 -49
3 -54 50 -100 83 -80 80 -122 -15 -172 -76 -40 -81 -64 -31 -127 41 -51 42
-58 19 -98 -13 -23 -31 -33 -87 -50 -39 -11 -98 -38 -131 -60 -118 -76 -160
-129 -505 -632 -272 -397 -401 -571 -473 -637 -100 -91 -297 -170 -479 -193
-275 -35 -498 82 -617 324 -85 172 -121 369 -121 659 0 235 17 308 134 594 60
144 72 202 56 276 -40 194 -261 238 -401 78 -93 -105 -181 -388 -220 -705 -15
-124 -6 -451 16 -596 78 -510 287 -855 617 -1021 215 -108 487 -145 763 -104
238 35 370 102 554 280 176 169 295 336 482 670 203 364 299 495 413 564 31
19 58 32 60 30 2 -2 -7 -38 -21 -79 -36 -108 -85 -370 -138 -746 -38 -272 -38
-274 37 -294 60 -17 44 -37 -45 -55 -16 -3 -35 -18 -46 -36 -19 -31 -47 -155
-75 -332 -17 -103 -36 -151 -111 -265 -24 -38 -53 -93 -65 -121 -27 -69 -120
-412 -160 -590 -35 -159 -34 -179 15 -266 21 -37 22 -49 18 -160 l-5 -120 82
-98 c95 -112 175 -176 310 -245 176 -91 285 -116 510 -116 182 -1 273 14 413
65 212 77 306 172 307 309 0 69 -51 313 -75 360 -28 54 -147 167 -281 266 -67
49 -133 98 -147 109 l-27 20 15 75 c8 41 15 102 15 135 0 60 33 233 149 773
l61 282 10 258 c13 340 29 499 52 545 15 29 66 47 100 35 51 -18 53 -29 53
-353 0 -350 0 -351 72 -341 70 9 73 2 66 -123 -7 -121 8 -174 56 -194 14 -6
28 -12 30 -13 1 -2 -7 -49 -19 -105 -26 -120 -23 -163 18 -229 27 -43 30 -59
41 -194 27 -331 88 -534 187 -626 24 -22 44 -46 44 -53 0 -33 33 -133 53 -161
12 -17 32 -65 44 -106 37 -127 38 -129 100 -158 63 -29 65 -29 393 -22 180 4
253 -6 425 -60 172 -54 245 -65 445 -65 134 0 194 4 255 18 102 24 227 84 288
139 l48 43 -16 205 c-9 113 -21 217 -27 233 -19 49 -100 112 -175 135 -121 37
-384 72 -554 72 -52 0 -68 4 -73 16 -4 12 -13 14 -29 9 -36 -11 -100 -5 -118
11 -9 8 -27 14 -40 13 -44 -4 -79 1 -79 11 0 6 19 10 43 10 94 1 155 32 172
87 9 32 -34 73 -76 73 -85 0 -170 -54 -190 -121 -7 -21 -14 -37 -16 -35 -2 2
-6 32 -8 67 -6 90 -34 169 -136 371 -109 217 -137 297 -149 430 -16 166 -87
501 -205 963 -104 407 -169 611 -265 834 -22 52 -40 96 -40 98 0 2 17 3 39 3
67 0 102 11 114 37 14 31 -10 140 -69 315 -48 144 -89 314 -100 418 -5 53 -1
90 24 200 36 158 60 324 63 433 1 42 6 77 10 77 5 0 162 -138 349 -307 508
-459 477 -433 521 -433 21 0 91 14 156 31 99 25 155 33 343 44 489 31 705 69
772 135 44 44 35 92 -42 220 -28 46 -50 84 -50 86 0 1 42 16 93 33 92 31 93
31 207 20 220 -19 449 13 651 93 l77 30 582 -272 c475 -221 585 -269 595 -258
7 7 201 253 430 547 293 374 420 545 426 570 5 20 9 64 9 99 0 59 1 63 20 57
13 -4 22 -1 24 7 104 336 219 697 492 1546 l185 573 -21 29 c-15 21 -34 31
-71 39 -117 25 -774 136 -1694 285 -641 104 -618 100 -623 90 -2 -5 -139 -414
-305 -909 l-302 -900 -730 -236 -730 -235 0 -119 c0 -70 4 -120 10 -122 6 -2
129 -59 275 -127 172 -80 264 -128 263 -137 -1 -8 -11 -46 -21 -85 -11 -39
-22 -95 -26 -125 -6 -49 -11 -58 -60 -101 l-53 -47 -33 34 -32 33 -74 -50
c-125 -83 -389 -208 -589 -278 l-51 -17 4 62 c7 112 -33 134 -124 70 l-49 -35
-21 23 c-12 12 -119 130 -239 262 -312 343 -551 595 -637 672 -60 53 -115 70
-157 48 -44 -22 -48 -20 -60 35 -6 28 -20 69 -32 91 -11 23 -19 43 -16 45 2 2
48 16 103 30 574 146 1046 430 1328 798 37 48 38 49 33 20 -15 -79 19 -98 99
-59 81 40 169 150 271 340 l43 80 0 -62 c0 -35 4 -63 8 -63 15 0 102 177 172
346 37 90 76 176 85 191 15 23 19 24 27 10 5 -9 12 -39 15 -67 3 -27 9 -50 14
-50 27 0 148 233 165 319 4 17 11 35 18 39 6 5 90 32 186 60 186 54 368 116
310 105 -19 -3 -135 -27 -257 -53 -123 -25 -223 -45 -223 -43 0 2 24 28 54 57
98 98 213 295 286 488 l33 88 76 50 c42 27 94 66 116 85 33 29 22 25 -60 -25
-54 -33 -103 -60 -108 -60 -5 0 -6 20 -3 45 11 68 -21 108 -66 84 -19 -10 -20
-9 -14 12 23 81 25 201 2 237 -15 25 -67 11 -115 -32 -13 -11 -22 -16 -19 -11
2 6 17 37 32 69 23 46 27 64 20 85 -12 32 -52 39 -88 16 l-26 -17 11 30 c12
35 -1 30 274 87 88 18 153 34 145 34 -17 1 -327 -44 -375 -54 l-30 -7 3 91 c3
78 0 96 -17 124 -37 61 -411 416 -740 703 l-33 30 45 69 c268 416 364 996 271
1635 -21 149 -37 223 -49 226 -5 1 -19 0 -30 -3z m-668 -11339 c11 -30 -29
-55 -103 -64 -38 -5 -71 -6 -74 -3 -3 3 15 23 40 44 37 32 52 39 88 39 30 0
44 -5 49 -16z m-639 -601 c-10 -2 -26 -2 -35 0 -10 3 -2 5 17 5 19 0 27 -2 18
-5z"/>
</g>
</svg>
